<svg width="617" height="69" viewBox="0 0 617 69" fill="none" xmlns="http://www.w3.org/2000/svg">
<path d="M431.79 25.93H444.22" stroke="#1A1A1A" stroke-width="0.75" stroke-miterlimit="10" stroke-linecap="round"/>
<path d="M431.79 30.02H444.22" stroke="#1A1A1A" stroke-width="0.75" stroke-miterlimit="10" stroke-linecap="round"/>
<path d="M444.59 47.06H430C428.939 47.06 427.922 46.6386 427.172 45.8884C426.421 45.1383 426 44.1209 426 43.06V23.52C426 22.4591 426.421 21.4417 427.172 20.6916C427.922 19.9414 428.939 19.52 430 19.52H446C447.061 19.52 448.078 19.9414 448.828 20.6916C449.579 21.4417 450 22.4591 450 23.52V36.94" stroke="#1A1A1A" stroke-miterlimit="10"/>
<path d="M447.53 50.5H446.34C446.147 50.5053 445.955 50.4726 445.774 50.4036C445.594 50.3346 445.429 50.2307 445.289 50.0979C445.148 49.9651 445.036 49.806 444.957 49.6296C444.878 49.4532 444.835 49.2631 444.83 49.07V43L440.59 38.09C440.502 37.9883 440.446 37.8632 440.428 37.7299C440.41 37.5967 440.432 37.4612 440.49 37.34C440.553 37.2164 440.649 37.1127 440.767 37.0403C440.885 36.9679 441.021 36.9297 441.16 36.93H452.76C452.899 36.9286 453.035 36.9663 453.154 37.0388C453.272 37.1113 453.368 37.2157 453.43 37.34C453.488 37.4612 453.51 37.5967 453.492 37.7299C453.474 37.8632 453.418 37.9883 453.33 38.09L449 43V49.12C448.977 49.4941 448.812 49.8452 448.539 50.1017C448.266 50.3582 447.905 50.5007 447.53 50.5V50.5Z" stroke="#1A1A1A" stroke-width="0.75" stroke-miterlimit="10"/>
<path d="M549.87 19.5H534.12C531.911 19.5 530.12 21.2909 530.12 23.5V46.5C530.12 48.7091 531.911 50.5 534.12 50.5H549.87C552.079 50.5 553.87 48.7091 553.87 46.5V23.5C553.87 21.2909 552.079 19.5 549.87 19.5Z" stroke="#1A1A1A" stroke-miterlimit="10"/>
<path d="M538.49 25.97H548.08" stroke="#1A1A1A" stroke-width="0.75" stroke-miterlimit="10" stroke-linecap="round"/>
<path d="M538.49 30.04H548.08" stroke="#1A1A1A" stroke-width="0.75" stroke-miterlimit="10" stroke-linecap="round"/>
<path d="M536.11 26.57C536.436 26.57 536.7 26.3014 536.7 25.97C536.7 25.6386 536.436 25.37 536.11 25.37C535.784 25.37 535.52 25.6386 535.52 25.97C535.52 26.3014 535.784 26.57 536.11 26.57Z" fill="#1A1A1A"/>
<path d="M536.11 30.64C536.436 30.64 536.7 30.3714 536.7 30.04C536.7 29.7086 536.436 29.44 536.11 29.44C535.784 29.44 535.52 29.7086 535.52 30.04C535.52 30.3714 535.784 30.64 536.11 30.64Z" fill="#1A1A1A"/>
<path d="M538.75 40.23L541.21 43.21L547.1 36.79" stroke="#1A1A1A" stroke-linecap="round" stroke-linejoin="round"/>
<path d="M186.82 47H177C176.47 47 175.961 46.7893 175.586 46.4142C175.211 46.0391 175 45.5304 175 45V21.5C175 20.9696 175.211 20.4609 175.586 20.0858C175.961 19.7107 176.47 19.5 177 19.5H188C188.53 19.5 189.039 19.7107 189.414 20.0858C189.789 20.4609 190 20.9696 190 21.5V37.5" stroke="#1A1A1A" stroke-miterlimit="10"/>
<path d="M178.69 34.13C179.182 34.13 179.58 33.7315 179.58 33.24C179.58 32.7485 179.182 32.35 178.69 32.35C178.198 32.35 177.8 32.7485 177.8 33.24C177.8 33.7315 178.198 34.13 178.69 34.13Z" fill="#1A1A1A"/>
<path d="M192.73 50.5C196.469 50.5 199.5 47.469 199.5 43.73C199.5 39.991 196.469 36.96 192.73 36.96C188.991 36.96 185.96 39.991 185.96 43.73C185.96 47.469 188.991 50.5 192.73 50.5Z" stroke="#1A1A1A" stroke-width="0.75" stroke-miterlimit="10"/>
<path d="M187.18 43.73H186" stroke="#1A1A1A" stroke-width="0.75" stroke-miterlimit="10" stroke-linecap="round"/>
<path d="M199.5 43.73H198.32" stroke="#1A1A1A" stroke-width="0.75" stroke-miterlimit="10" stroke-linecap="round"/>
<path d="M192.74 37.03V38.21" stroke="#1A1A1A" stroke-width="0.75" stroke-miterlimit="10" stroke-linecap="round"/>
<path d="M192.73 39.75V43.73" stroke="#1A1A1A" stroke-width="0.75" stroke-miterlimit="10" stroke-linecap="round"/>
<path d="M195.75 46.36L192.75 43.74" stroke="#1A1A1A" stroke-width="0.75" stroke-miterlimit="10" stroke-linecap="round"/>
<path d="M192.74 49.29V50.47" stroke="#1A1A1A" stroke-width="0.75" stroke-miterlimit="10" stroke-linecap="round"/>
<g clip-path="url(#clip0_522_60)">
<path d="M393 34.36V46.49C393 47.5509 392.579 48.5683 391.828 49.3184C391.078 50.0686 390.061 50.49 389 50.49H373C371.939 50.49 370.922 50.0686 370.172 49.3184C369.421 48.5683 369 47.5509 369 46.49V23.49C369 22.4291 369.421 21.4117 370.172 20.6616C370.922 19.9114 371.939 19.49 373 19.49H389C390.061 19.49 391.078 19.9114 391.828 20.6616C392.579 21.4117 393 22.4291 393 23.49V29.32" stroke="#1A1A1A" stroke-miterlimit="10" stroke-linecap="round"/>
<path d="M374.81 25.91H387.19" stroke="#1A1A1A" stroke-width="0.75" stroke-miterlimit="10" stroke-linecap="round"/>
<path d="M374.81 30.01H387.19" stroke="#1A1A1A" stroke-width="0.75" stroke-miterlimit="10" stroke-linecap="round"/>
<path d="M374.84 34.02H387.23" stroke="#1A1A1A" stroke-width="0.75" stroke-miterlimit="10" stroke-linecap="round"/>
<path d="M385.73 46.07L383.46 47.53L383.72 44.84L394.03 27.9L396.03 29.13L385.73 46.07Z" stroke="#1A1A1A" stroke-width="0.75" stroke-linecap="round" stroke-linejoin="round"/>
<path d="M392.49 28.95V30.32L393.2 29.56L392.49 28.95Z" fill="#1A1A1A"/>
</g>
<path d="M31 38.67L30.64 38.52C30.5926 38.4975 30.5504 38.4655 30.5159 38.4259C30.4815 38.3864 30.4557 38.3401 30.44 38.29C30.36 37.95 30.3 37.7 30.26 37.45C30.2537 37.3796 30.2279 37.3124 30.1855 37.2559C30.1431 37.1993 30.0858 37.1558 30.02 37.13H27.54C27.4736 37.1518 27.4153 37.193 27.3725 37.2482C27.3298 37.3035 27.3045 37.3703 27.3 37.44C27.25 37.7 27.19 37.97 27.11 38.29C27.0979 38.3403 27.0745 38.3871 27.0416 38.427C27.0087 38.4668 26.9671 38.4986 26.92 38.52L26.26 38.79C26.2166 38.812 26.1686 38.8234 26.12 38.8234C26.0714 38.8234 26.0234 38.812 25.98 38.79L25.46 38.46L25.21 38.3C25.1809 38.2678 25.1455 38.2421 25.1058 38.2245C25.0662 38.2069 25.0234 38.1979 24.98 38.1979C24.9367 38.1979 24.8938 38.2069 24.8542 38.2245C24.8146 38.2421 24.7791 38.2678 24.75 38.3L23.21 39.82C23.1744 39.8454 23.1447 39.878 23.1226 39.9157C23.1005 39.9534 23.0867 39.9954 23.0819 40.0388C23.0772 40.0822 23.0817 40.1262 23.0952 40.1677C23.1086 40.2093 23.1307 40.2476 23.16 40.28L23.33 40.53L23.65 41.03C23.6695 41.0759 23.6796 41.1252 23.6796 41.175C23.6796 41.2248 23.6695 41.2742 23.65 41.32C23.5682 41.5415 23.4748 41.7584 23.37 41.97C23.3475 42.0163 23.3153 42.0572 23.2756 42.09C23.2359 42.1227 23.1897 42.1466 23.14 42.16L22.49 42.31H22.26C22.04 42.36 21.97 42.45 21.97 42.66V44.9C21.97 45.12 22.05 45.2 22.26 45.25H22.46L23.14 45.4C23.2415 45.43 23.3275 45.4981 23.38 45.59L23.53 45.95C23.53 46.04 23.6 46.13 23.64 46.22C23.6714 46.2675 23.6881 46.3231 23.6881 46.38C23.6881 46.4369 23.6714 46.4926 23.64 46.54L23.19 47.23V47.29C23.1609 47.3216 23.139 47.359 23.1256 47.3998C23.1122 47.4406 23.1077 47.4837 23.1125 47.5264C23.1172 47.5691 23.1311 47.6102 23.1531 47.647C23.1751 47.6839 23.2047 47.7156 23.24 47.74L24.78 49.27C24.94 49.43 25.04 49.44 25.24 49.27L25.32 49.22L25.99 48.79C26.0426 48.7523 26.1053 48.7313 26.17 48.73C26.2159 48.7177 26.2641 48.7177 26.31 48.73L26.6 48.84L26.95 48.99C26.9963 49.0125 27.0372 49.0447 27.0699 49.0844C27.1027 49.1241 27.1266 49.1703 27.14 49.22C27.2 49.46 27.25 49.7 27.3 49.94V50.09C27.35 50.31 27.44 50.38 27.67 50.38H29.83C30.07 50.38 30.15 50.31 30.2 50.09V49.94C30.25 49.69 30.31 49.45 30.36 49.21C30.3757 49.1612 30.4017 49.1163 30.4362 49.0784C30.4707 49.0405 30.5129 49.0103 30.56 48.99L30.89 48.85L31.19 48.73C31.2394 48.6989 31.2966 48.6824 31.355 48.6824C31.4134 48.6824 31.4706 48.6989 31.52 48.73L32.13 49.12L32.26 49.2C32.47 49.33 32.56 49.32 32.73 49.15L34.26 47.63C34.2983 47.6081 34.331 47.5775 34.3552 47.5406C34.3795 47.5037 34.3946 47.4616 34.3995 47.4177C34.4044 47.3739 34.3988 47.3294 34.3833 47.2881C34.3677 47.2468 34.3426 47.2098 34.31 47.18L34.15 46.92L33.82 46.41C33.798 46.3666 33.7866 46.3186 33.7866 46.27C33.7866 46.2214 33.798 46.1734 33.82 46.13C33.91 45.9 34 45.69 34.09 45.49C34.1381 45.3963 34.2205 45.3246 34.32 45.29L35.18 45.1C35.2374 45.1114 35.2968 45.1083 35.3528 45.0908C35.4087 45.0733 35.4593 45.0421 35.5 45V42.61C35.4766 42.5455 35.4347 42.4893 35.3796 42.4484C35.3245 42.4075 35.2585 42.3837 35.19 42.38C34.93 42.33 34.64 42.27 34.33 42.19C34.2803 42.1766 34.2341 42.1527 34.1944 42.12C34.1547 42.0872 34.1225 42.0463 34.1 42C34 41.79 33.91 41.57 33.83 41.35C33.808 41.3066 33.7966 41.2586 33.7966 41.21C33.7966 41.1614 33.808 41.1134 33.83 41.07L34.16 40.55L34.32 40.31C34.45 40.11 34.44 40.01 34.32 39.85L32.77 38.33C32.7418 38.2981 32.7072 38.2725 32.6684 38.255C32.6296 38.2375 32.5876 38.2284 32.545 38.2284C32.5024 38.2284 32.4604 38.2375 32.4216 38.255C32.3828 38.2725 32.3482 38.2981 32.32 38.33H32.24L31.56 38.76C31.5117 38.7891 31.4564 38.8045 31.4 38.8045C31.3436 38.8045 31.2883 38.7891 31.24 38.76L31 38.67Z" stroke="#1A1A1A" stroke-width="0.75" stroke-miterlimit="10"/>
<path d="M28.75 46.35C30.1639 46.35 31.31 45.2173 31.31 43.82C31.31 42.4227 30.1639 41.29 28.75 41.29C27.3362 41.29 26.19 42.4227 26.19 43.82C26.19 45.2173 27.3362 46.35 28.75 46.35Z" stroke="#1A1A1A" stroke-width="0.75" stroke-miterlimit="10"/>
<path d="M24.13 39.09C23.5919 37.4288 22.69 35.9085 21.49 34.64C21.4105 34.5596 21.307 34.5074 21.1951 34.4911C21.0832 34.4749 20.9691 34.4956 20.87 34.55C19.4812 35.2149 17.9598 35.5568 16.42 35.55C14.8866 35.5566 13.3718 35.2146 11.99 34.55C11.8895 34.4984 11.7751 34.4803 11.6636 34.4983C11.5521 34.5163 11.4492 34.5694 11.37 34.65C9.27478 36.9348 8.07766 39.9009 8 43C7.99868 43.0722 8.01159 43.144 8.03802 43.2112C8.06444 43.2785 8.10385 43.3399 8.15399 43.3919C8.20414 43.4439 8.26404 43.4855 8.33027 43.5143C8.3965 43.5432 8.46777 43.5587 8.54 43.56H21.84" stroke="#1A1A1A" stroke-miterlimit="10"/>
<path d="M16.42 31.33C19.6343 31.33 22.24 28.7512 22.24 25.57C22.24 22.3888 19.6343 19.81 16.42 19.81C13.2057 19.81 10.6 22.3888 10.6 25.57C10.6 28.7512 13.2057 31.33 16.42 31.33Z" stroke="#1A1A1A" stroke-miterlimit="10"/>
<g clip-path="url(#clip1_522_60)">
<path d="M129.52 45.29C129.38 45.57 128.76 45.57 128.46 45.57H120.39C119.86 45.57 119.351 45.3593 118.976 44.9842C118.601 44.6091 118.39 44.1004 118.39 43.57V21.51C118.39 20.9796 118.601 20.4709 118.976 20.0958C119.351 19.7207 119.86 19.51 120.39 19.51H128.46C128.99 19.51 129.499 19.7207 129.874 20.0958C130.249 20.4709 130.46 20.9796 130.46 21.51V39.51" stroke="#1A1A1A" stroke-width="0.75" stroke-miterlimit="10"/>
<path d="M120.47 45.57H113.18C112.751 45.5808 112.335 45.422 112.022 45.1281C111.71 44.8342 111.526 44.4288 111.51 44V27.05C111.513 26.6062 111.691 26.1814 112.006 25.8685C112.32 25.5556 112.746 25.38 113.19 25.38H118.39" stroke="#1A1A1A" stroke-width="0.75" stroke-miterlimit="10"/>
<path d="M130.46 25.38H135.83C136.274 25.38 136.7 25.5556 137.014 25.8685C137.329 26.1814 137.507 26.6062 137.51 27.05V38.23" stroke="#1A1A1A" stroke-width="0.75" stroke-miterlimit="10"/>
<path d="M133.21 29.91H134.55" stroke="#1A1A1A" stroke-width="0.75" stroke-miterlimit="10" stroke-linecap="round"/>
<path d="M133.21 34.01H134.55" stroke="#1A1A1A" stroke-width="0.75" stroke-miterlimit="10" stroke-linecap="round"/>
<path d="M114.09 29.89H115.43" stroke="#1A1A1A" stroke-width="0.75" stroke-miterlimit="10" stroke-linecap="round"/>
<path d="M114.09 34H115.43" stroke="#1A1A1A" stroke-width="0.75" stroke-miterlimit="10" stroke-linecap="round"/>
<path d="M114.11 38.55H115.45" stroke="#1A1A1A" stroke-width="0.75" stroke-miterlimit="10" stroke-linecap="round"/>
<path d="M121.11 29.89H122.45" stroke="#1A1A1A" stroke-width="0.75" stroke-miterlimit="10" stroke-linecap="round"/>
<path d="M121.11 25.38H122.45" stroke="#1A1A1A" stroke-width="0.75" stroke-miterlimit="10" stroke-linecap="round"/>
<path d="M126.38 25.38H127.72" stroke="#1A1A1A" stroke-width="0.75" stroke-miterlimit="10" stroke-linecap="round"/>
<path d="M121.11 34H122.45" stroke="#1A1A1A" stroke-width="0.75" stroke-miterlimit="10" stroke-linecap="round"/>
<path d="M121.13 38.55H122.47" stroke="#1A1A1A" stroke-width="0.75" stroke-miterlimit="10" stroke-linecap="round"/>
<path d="M126.38 29.89H127.72" stroke="#1A1A1A" stroke-width="0.75" stroke-miterlimit="10" stroke-linecap="round"/>
<path d="M126.38 34H127.72" stroke="#1A1A1A" stroke-width="0.75" stroke-miterlimit="10" stroke-linecap="round"/>
<path d="M126.4 38.55H127.74" stroke="#1A1A1A" stroke-width="0.75" stroke-miterlimit="10" stroke-linecap="round"/>
<path d="M137.94 38.55L137.58 38.4C137.533 38.3764 137.491 38.3427 137.458 38.3012C137.425 38.2597 137.402 38.2115 137.39 38.16C137.3 37.82 137.24 37.56 137.2 37.32C137.2 37.2534 137.181 37.1882 137.145 37.1317C137.11 37.0752 137.06 37.0296 137 37H134.53C134.464 37.023 134.407 37.0644 134.364 37.1195C134.322 37.1745 134.296 37.2407 134.29 37.31C134.24 37.57 134.18 37.85 134.1 38.17C134.088 38.2215 134.065 38.2697 134.032 38.3112C133.999 38.3527 133.957 38.3864 133.91 38.41C133.71 38.5 133.5 38.59 133.25 38.68C133.16 38.7147 133.06 38.7147 132.97 38.68L132.45 38.34L132.2 38.18C132.168 38.1507 132.129 38.1286 132.088 38.1152C132.046 38.1017 132.002 38.0972 131.959 38.1019C131.915 38.1067 131.873 38.1205 131.836 38.1426C131.798 38.1647 131.765 38.1944 131.74 38.23L130.2 39.74C130.166 39.7682 130.139 39.8033 130.121 39.8431C130.102 39.8828 130.093 39.9261 130.093 39.97C130.093 40.0139 130.102 40.0572 130.121 40.0969C130.139 40.1367 130.166 40.1718 130.2 40.2L130.36 40.45C130.47 40.62 130.58 40.79 130.68 40.96C130.719 41.0562 130.719 41.1638 130.68 41.26C130.59 41.5 130.5 41.71 130.41 41.91C130.386 41.9574 130.353 41.9989 130.311 42.0318C130.27 42.0646 130.222 42.0879 130.17 42.1C129.96 42.16 129.74 42.2 129.52 42.25L129.29 42.3C129.08 42.3 129.01 42.43 129 42.65V44.84C128.994 44.8823 128.998 44.9253 129.009 44.9663C129.021 45.0073 129.041 45.0454 129.069 45.0783C129.096 45.1111 129.13 45.138 129.168 45.1572C129.206 45.1765 129.247 45.1876 129.29 45.19H129.49L130.17 45.34C130.221 45.3555 130.269 45.3812 130.31 45.4156C130.352 45.45 130.385 45.4923 130.41 45.54L130.56 45.89C130.56 45.99 130.63 46.08 130.67 46.17C130.701 46.2175 130.718 46.2731 130.718 46.33C130.718 46.3869 130.701 46.4425 130.67 46.49L130.22 47.19V47.25C130.191 47.2824 130.169 47.3207 130.155 47.3623C130.142 47.4038 130.137 47.4478 130.142 47.4912C130.147 47.5346 130.161 47.5766 130.183 47.6143C130.205 47.652 130.234 47.6846 130.27 47.71C130.78 48.22 131.27 48.71 131.81 49.25C131.97 49.41 132.07 49.42 132.27 49.25H132.35L133.03 48.82C133.078 48.7811 133.138 48.7599 133.2 48.76C133.25 48.7514 133.3 48.7514 133.35 48.76L133.63 48.88L133.98 49.03C134.027 49.0536 134.069 49.0873 134.102 49.1288C134.135 49.1703 134.158 49.2185 134.17 49.27C134.23 49.5 134.28 49.75 134.33 49.99V50.14C134.38 50.37 134.46 50.43 134.69 50.43H136.86C137.09 50.43 137.17 50.37 137.22 50.14V49.98C137.27 49.74 137.32 49.5 137.38 49.25C137.393 49.2016 137.417 49.1567 137.45 49.1187C137.483 49.0806 137.524 49.0503 137.57 49.03L137.9 48.89L138.2 48.76C138.25 48.73 138.307 48.7142 138.365 48.7142C138.423 48.7142 138.48 48.73 138.53 48.76L139.14 49.16L139.28 49.24C139.48 49.37 139.57 49.36 139.74 49.24L141.28 47.71C141.314 47.6818 141.341 47.6467 141.359 47.6069C141.378 47.5672 141.387 47.5239 141.387 47.48C141.387 47.4361 141.378 47.3928 141.359 47.3531C141.341 47.3133 141.314 47.2782 141.28 47.25L141.17 47L140.84 46.49C140.82 46.446 140.81 46.3983 140.81 46.35C140.81 46.3017 140.82 46.254 140.84 46.21C140.927 45.97 141.017 45.75 141.11 45.55C141.133 45.5037 141.165 45.4628 141.204 45.4301C141.244 45.3973 141.29 45.3734 141.34 45.36C141.623 45.2812 141.91 45.2178 142.2 45.17C142.27 45.1655 142.337 45.1402 142.392 45.0975C142.447 45.0547 142.488 44.9964 142.51 44.93V42.53C142.489 42.4629 142.449 42.4038 142.393 42.3608C142.338 42.3178 142.27 42.2931 142.2 42.29L141.34 42.1C141.29 42.0866 141.244 42.0627 141.204 42.0299C141.165 41.9972 141.133 41.9563 141.11 41.91C141.01 41.69 140.92 41.47 140.84 41.25C140.818 41.2066 140.807 41.1586 140.807 41.11C140.807 41.0614 140.818 41.0134 140.84 40.97L141.17 40.45L141.33 40.2C141.46 40 141.45 39.9 141.33 39.74C140.81 39.23 140.33 38.74 139.79 38.2C139.765 38.1644 139.732 38.1347 139.694 38.1126C139.657 38.0905 139.615 38.0767 139.571 38.0719C139.528 38.0672 139.484 38.0717 139.442 38.0852C139.401 38.0986 139.362 38.1207 139.33 38.15L139.25 38.21L138.57 38.64C138.522 38.6691 138.466 38.6845 138.41 38.6845C138.354 38.6845 138.298 38.6691 138.25 38.64C138.12 38.62 138 38.59 137.94 38.55Z" stroke="#1A1A1A" stroke-width="0.75" stroke-miterlimit="10"/>
<path d="M135.74 46.3C137.154 46.3 138.3 45.1538 138.3 43.74C138.3 42.3261 137.154 41.18 135.74 41.18C134.326 41.18 133.18 42.3261 133.18 43.74C133.18 45.1538 134.326 46.3 135.74 46.3Z" stroke="#1A1A1A" stroke-width="0.75" stroke-miterlimit="10"/>
</g>
<g clip-path="url(#clip2_522_60)">
<path d="M242.22 38C241.249 37.4997 240.399 36.7928 239.731 35.929C239.062 35.0652 238.591 34.0654 238.35 33" stroke="#1A1A1A" stroke-width="0.75" stroke-miterlimit="10"/>
<path d="M248.46 38.59C250.111 37.802 251.397 36.411 252.054 34.7034C252.711 32.9957 252.688 31.1013 251.99 29.41C251.335 27.6301 250 26.1824 248.28 25.384C246.559 24.5855 244.592 24.5014 242.81 25.15C242.079 25.426 241.402 25.8289 240.81 26.34" stroke="#1A1A1A" stroke-width="0.75" stroke-miterlimit="10"/>
<path d="M241.47 47H229.52C228.459 47 227.442 46.5786 226.692 45.8284C225.941 45.0783 225.52 44.0609 225.52 43V23.51C225.52 22.4491 225.941 21.4317 226.692 20.6816C227.442 19.9314 228.459 19.51 229.52 19.51H245.63C246.691 19.51 247.708 19.9314 248.458 20.6816C249.209 21.4317 249.63 22.4491 249.63 23.51V36.22" stroke="#1A1A1A" stroke-miterlimit="10"/>
<path d="M243.76 27.35C243.522 26.4627 243.021 25.6681 242.323 25.0703C241.625 24.4726 240.763 24.0995 239.85 24C239.69 24 239.51 24 239.34 24H239.14H238.43H238.23L237.81 24.13C237.185 24.3533 236.615 24.7069 236.138 25.1672C235.66 25.6275 235.286 26.1841 235.04 26.8C234.794 27.3887 234.676 28.0229 234.693 28.6607C234.71 29.2985 234.863 29.9254 235.14 30.5C235.199 30.5701 235.231 30.6586 235.231 30.75C235.231 30.8414 235.199 30.9299 235.14 31L232.65 34.05L231.27 35.8C231.238 35.835 231.214 35.8761 231.198 35.9208C231.183 35.9655 231.177 36.0128 231.18 36.06C231.253 36.56 231.313 37.06 231.36 37.56L231.47 38.43C231.47 38.6 231.56 38.65 231.73 38.63L232.43 38.55L232.83 38.5L233.66 38.41C233.705 38.4048 233.749 38.3906 233.788 38.3683C233.828 38.3459 233.862 38.3159 233.89 38.28C234.04 38.09 234.21 37.86 234.4 37.63C234.436 37.594 234.462 37.5493 234.476 37.5004C234.49 37.4514 234.492 37.3996 234.48 37.35L234.42 36.82V36.42L234.84 36.37L235.4 36.31C235.43 36.3117 235.459 36.3061 235.486 36.2936C235.513 36.281 235.537 36.2621 235.554 36.2383C235.572 36.2145 235.584 36.1867 235.588 36.1574C235.593 36.128 235.59 36.098 235.58 36.07C235.584 36.0034 235.584 35.9366 235.58 35.87V35.6H235.96C236.23 35.6 236.26 35.53 236.22 35.26L236.13 34.48H236.5L236.97 34.43C237.017 34.4261 237.062 34.4125 237.104 34.3901C237.145 34.3678 237.181 34.3371 237.21 34.3C237.34 34.12 237.48 33.95 237.62 33.77L238.05 33.22C238.088 33.1655 238.142 33.1239 238.205 33.1007C238.267 33.0775 238.335 33.0738 238.4 33.09C239.208 33.2785 240.052 33.2404 240.84 32.98C241.961 32.6018 242.891 31.8039 243.436 30.754C243.98 29.704 244.096 28.4839 243.76 27.35Z" stroke="#1A1A1A" stroke-width="0.75" stroke-miterlimit="10"/>
<path d="M240.25 28.27C240.835 28.27 241.31 27.7954 241.31 27.21C241.31 26.6246 240.835 26.15 240.25 26.15C239.665 26.15 239.19 26.6246 239.19 27.21C239.19 27.7954 239.665 28.27 240.25 28.27Z" stroke="#1A1A1A" stroke-width="0.75" stroke-miterlimit="10"/>
<path d="M247.14 40.14C247.869 40.14 248.46 39.549 248.46 38.82C248.46 38.091 247.869 37.5 247.14 37.5C246.411 37.5 245.82 38.091 245.82 38.82C245.82 39.549 246.411 40.14 247.14 40.14Z" stroke="#1A1A1A" stroke-width="0.75" stroke-miterlimit="10"/>
<path d="M252.47 38.64L247.75 34.64C247.574 34.503 247.358 34.4285 247.135 34.4285C246.912 34.4285 246.696 34.503 246.52 34.64L241.81 38.64C241.707 38.7303 241.624 38.8408 241.565 38.9647C241.507 39.0886 241.474 39.2231 241.47 39.36V49.58C241.47 49.8452 241.575 50.0996 241.763 50.2871C241.95 50.4746 242.205 50.58 242.47 50.58H251.9C252.156 50.5672 252.398 50.4562 252.575 50.27C252.752 50.0838 252.85 49.8368 252.85 49.58V39.36C252.845 39.2192 252.808 39.0814 252.742 38.9567C252.676 38.8321 252.583 38.7239 252.47 38.64V38.64Z" stroke="#1A1A1A" stroke-width="0.75" stroke-miterlimit="10"/>
<path d="M244.01 43.87C244.168 43.6531 244.376 43.4773 244.616 43.3572C244.856 43.2372 245.122 43.1764 245.39 43.18C245.659 43.1738 245.925 43.2335 246.166 43.3538C246.406 43.474 246.614 43.6512 246.77 43.87C247.122 44.3931 247.31 45.0094 247.31 45.64C247.31 46.2706 247.122 46.8869 246.77 47.41C246.614 47.6288 246.406 47.806 246.166 47.9262C245.925 48.0465 245.659 48.1061 245.39 48.1C245.122 48.1036 244.856 48.0428 244.616 47.9228C244.376 47.8027 244.168 47.6269 244.01 47.41C243.664 46.8845 243.48 46.2691 243.48 45.64C243.48 45.0109 243.664 44.3955 244.01 43.87ZM244.47 44.27C244.234 44.6881 244.11 45.16 244.11 45.64C244.11 46.12 244.234 46.5919 244.47 47.01C244.565 47.1689 244.7 47.3004 244.861 47.3915C245.023 47.4827 245.205 47.5304 245.39 47.53C245.577 47.5311 245.761 47.4838 245.924 47.3927C246.087 47.3015 246.223 47.1697 246.32 47.01C246.556 46.5919 246.68 46.12 246.68 45.64C246.68 45.16 246.556 44.6881 246.32 44.27C246.223 44.1103 246.087 43.9785 245.924 43.8873C245.761 43.7962 245.577 43.7489 245.39 43.75C245.205 43.7496 245.023 43.7973 244.861 43.8885C244.7 43.9796 244.565 44.1111 244.47 44.27Z" fill="#1A1A1A"/>
<path d="M249.55 44L248.55 44.45V43.84L249.87 43.26H250.14V48H249.53L249.55 44Z" fill="#1A1A1A"/>
</g>
<g clip-path="url(#clip3_522_60)">
<path d="M488.55 47H481.55C481.02 47 480.511 46.7893 480.136 46.4142C479.761 46.0391 479.55 45.5304 479.55 45V21.5C479.55 20.9696 479.761 20.4609 480.136 20.0858C480.511 19.7107 481.02 19.5 481.55 19.5H492.55C493.08 19.5 493.589 19.7107 493.964 20.0858C494.339 20.4609 494.55 20.9696 494.55 21.5V37" stroke="#1A1A1A" stroke-miterlimit="10"/>
<path d="M499.04 42.73H490.14C489.312 42.73 488.64 43.4016 488.64 44.23V49C488.64 49.8284 489.312 50.5 490.14 50.5H499.04C499.868 50.5 500.54 49.8284 500.54 49V44.23C500.54 43.4016 499.868 42.73 499.04 42.73Z" stroke="#1A1A1A" stroke-width="0.75" stroke-miterlimit="10"/>
<path d="M498.19 42.73V39.94C498.19 39.1444 497.874 38.3813 497.311 37.8187C496.749 37.2561 495.986 36.94 495.19 36.94H493.81C493.014 36.94 492.251 37.2561 491.689 37.8187C491.126 38.3813 490.81 39.1444 490.81 39.94V42.73" stroke="#1A1A1A" stroke-width="0.75" stroke-miterlimit="10"/>
<path d="M483.19 34.14C483.682 34.14 484.08 33.7415 484.08 33.25C484.08 32.7585 483.682 32.36 483.19 32.36C482.698 32.36 482.3 32.7585 482.3 33.25C482.3 33.7415 482.698 34.14 483.19 34.14Z" fill="#1A1A1A"/>
</g>
<g clip-path="url(#clip4_522_60)">
<path d="M78.04 40.42L77.85 39.78C77.3552 37.7947 76.3642 35.9675 74.97 34.47C74.8884 34.3899 74.7839 34.3373 74.671 34.3193C74.5581 34.3014 74.4424 34.3191 74.34 34.37C72.9565 35.0402 71.4372 35.3824 69.9 35.37C68.3666 35.3766 66.8518 35.0346 65.47 34.37C65.3714 34.3139 65.2568 34.2923 65.1445 34.3086C65.0323 34.3249 64.9286 34.3782 64.85 34.46C62.7376 36.8049 61.5442 39.8344 61.49 42.99C61.4873 43.0626 61.4993 43.135 61.5252 43.2028C61.5511 43.2706 61.5905 43.3325 61.6409 43.3848C61.6913 43.4371 61.7518 43.4787 61.8186 43.5071C61.8855 43.5354 61.9574 43.55 62.03 43.55H70.91" stroke="#1A1A1A" stroke-miterlimit="10"/>
<path d="M69.9 31.14C73.1143 31.14 75.72 28.5343 75.72 25.32C75.72 22.1057 73.1143 19.5 69.9 19.5C66.6857 19.5 64.08 22.1057 64.08 25.32C64.08 28.5343 66.6857 31.14 69.9 31.14Z" stroke="#1A1A1A" stroke-miterlimit="10"/>
<path d="M83.48 40.49H72.92C71.8154 40.49 70.92 41.3854 70.92 42.49V48.49C70.92 49.5946 71.8154 50.49 72.92 50.49H83.48C84.5846 50.49 85.48 49.5946 85.48 48.49V42.49C85.48 41.3854 84.5846 40.49 83.48 40.49Z" stroke="#1A1A1A" stroke-width="0.75" stroke-miterlimit="10" stroke-linecap="round"/>
<path d="M72.59 43.5H84.99" stroke="#1A1A1A" stroke-width="0.75" stroke-miterlimit="10" stroke-linecap="round"/>
</g>
<g clip-path="url(#clip5_522_60)">
<path d="M587.23 34.13C587.722 34.13 588.12 33.7315 588.12 33.24C588.12 32.7485 587.722 32.35 587.23 32.35C586.738 32.35 586.34 32.7485 586.34 33.24C586.34 33.7315 586.738 34.13 587.23 34.13Z" fill="#1A1A1A"/>
<path d="M596.22 37.6C596.712 37.6 597.11 37.2015 597.11 36.71C597.11 36.2185 596.712 35.82 596.22 35.82C595.728 35.82 595.33 36.2185 595.33 36.71C595.33 37.2015 595.728 37.6 596.22 37.6Z" fill="#1A1A1A"/>
<path d="M605.52 22.97H594.53C593.425 22.97 592.53 23.8654 592.53 24.97V48.49C592.53 49.5946 593.425 50.49 594.53 50.49H605.52C606.625 50.49 607.52 49.5946 607.52 48.49V24.97C607.52 23.8654 606.625 22.97 605.52 22.97Z" stroke="#1A1A1A" stroke-miterlimit="10"/>
<path d="M592.51 47H585.51C584.98 47 584.471 46.7893 584.096 46.4142C583.721 46.0391 583.51 45.5304 583.51 45V21.5C583.51 20.9696 583.721 20.4609 584.096 20.0858C584.471 19.7107 584.98 19.5 585.51 19.5H596.51C597.04 19.5 597.549 19.7107 597.924 20.0858C598.299 20.4609 598.51 20.9696 598.51 21.5V23" stroke="#1A1A1A" stroke-miterlimit="10"/>
</g>
<g clip-path="url(#clip6_522_60)">
<path d="M309.406 15.0625C310.336 15.0625 311.228 15.4319 311.886 16.0895C312.543 16.747 312.913 17.6388 312.913 18.5688V29.8988H301.569C300.638 29.8951 299.746 29.5227 299.089 28.8629C298.431 28.2032 298.062 27.3099 298.063 26.3788V18.5825C298.062 17.6513 298.431 16.7581 299.089 16.0983C299.746 15.4386 300.638 15.0661 301.569 15.0625H309.406ZM309.406 13H301.569C300.836 13 300.111 13.1445 299.435 13.4252C298.758 13.7059 298.143 14.1174 297.626 14.6359C297.109 15.1545 296.699 15.77 296.42 16.4472C296.141 17.1244 295.998 17.8501 296 18.5825V26.3788C295.998 27.1112 296.141 27.8368 296.42 28.514C296.699 29.1913 297.109 29.8068 297.626 30.3254C298.143 30.8439 298.758 31.2553 299.435 31.5361C300.111 31.8168 300.836 31.9613 301.569 31.9613H314.975V18.5688C314.984 17.8349 314.847 17.1066 314.57 16.4268C314.293 15.747 313.883 15.1294 313.365 14.6105C312.846 14.0915 312.228 13.6817 311.548 13.4051C310.868 13.1285 310.14 12.9908 309.406 13Z" fill="#1A1A1A"/>
<path d="M312.913 40.0875V51.4037C312.913 52.3337 312.543 53.2255 311.886 53.883C311.228 54.5406 310.336 54.91 309.406 54.91H301.569C301.107 54.91 300.65 54.8188 300.224 54.6418C299.797 54.4647 299.41 54.2052 299.085 53.8782C298.759 53.5511 298.501 53.163 298.325 52.736C298.15 52.309 298.061 51.8516 298.063 51.39V43.5937C298.063 42.6638 298.432 41.772 299.089 41.1145C299.747 40.4569 300.639 40.0875 301.569 40.0875H312.913ZM314.975 38.025H301.569C300.841 38.0249 300.12 38.1694 299.448 38.4501C298.776 38.7308 298.167 39.1421 297.655 39.6601C297.144 40.1782 296.74 40.7926 296.468 41.4679C296.195 42.1431 296.06 42.8657 296.069 43.5937V51.39C296.054 52.1215 296.186 52.8485 296.455 53.5285C296.725 54.2086 297.128 54.828 297.64 55.3504C298.152 55.8728 298.764 56.2878 299.438 56.5711C300.113 56.8543 300.837 57.0001 301.569 57H309.406C310.14 57.0092 310.868 56.8715 311.548 56.5949C312.228 56.3183 312.846 55.9085 313.365 55.3895C313.883 54.8706 314.293 54.253 314.57 53.5732C314.846 52.8934 314.984 52.1651 314.975 51.4312V38.025Z" fill="#1A1A1A"/>
<path d="M334.5 40.1013C335.431 40.1049 336.323 40.4774 336.98 41.1371C337.637 41.7968 338.006 42.6901 338.006 43.6213V51.4175C338.006 52.3487 337.637 53.2419 336.98 53.9017C336.323 54.5614 335.431 54.9339 334.5 54.9375H326.662C326.202 54.9466 325.744 54.8649 325.315 54.6971C324.886 54.5293 324.495 54.2786 324.163 53.9594C323.831 53.6401 323.565 53.2586 323.381 52.8367C323.196 52.4147 323.096 51.9605 323.088 51.5V40.1013H334.5ZM334.5 38.0388H321.025V51.5C321.025 52.2281 321.169 52.949 321.45 53.6208C321.731 54.2926 322.142 54.902 322.66 55.4136C323.178 55.9252 323.793 56.3289 324.468 56.6012C325.143 56.8736 325.866 57.0091 326.594 57H334.5C335.967 56.9819 337.368 56.3853 338.398 55.34C339.428 54.2946 340.004 52.885 340 51.4175V43.6213C340.004 42.1538 339.428 40.7442 338.398 39.6988C337.368 38.6534 335.967 38.0569 334.5 38.0388Z" fill="#1A1A1A"/>
<path d="M334.5 15.09C335.42 15.108 336.297 15.4873 336.94 16.1459C337.583 16.8044 337.941 17.6895 337.938 18.61V26.4063C337.938 27.3244 337.578 28.2059 336.935 28.8616C336.292 29.5172 335.418 29.8945 334.5 29.9125H323.088V18.5963C323.088 17.6663 323.457 16.7745 324.114 16.117C324.772 15.4594 325.664 15.09 326.594 15.09H334.5ZM334.5 13H326.662C325.921 12.9813 325.183 13.113 324.493 13.3871C323.803 13.6612 323.176 14.0721 322.649 14.5949C322.123 15.1178 321.707 15.7418 321.428 16.4295C321.149 17.1172 321.012 17.8542 321.025 18.5963V31.975H334.5C335.228 31.9751 335.949 31.8306 336.621 31.5499C337.293 31.2692 337.902 30.8579 338.414 30.3399C338.925 29.8218 339.329 29.2074 339.601 28.5321C339.874 27.8569 340.009 27.1343 340 26.4063V18.61C340.015 17.8785 339.883 17.1515 339.613 16.4714C339.343 15.7914 338.941 15.172 338.429 14.6496C337.916 14.1272 337.305 13.7122 336.63 13.4289C335.956 13.1457 335.232 12.9999 334.5 13Z" fill="#1A1A1A"/>
</g>
<path d="M0 0H617V69H0V0Z" fill="url(#paint0_radial_522_60)"/>
<defs>
<radialGradient id="paint0_radial_522_60" cx="0" cy="0" r="1" gradientUnits="userSpaceOnUse" gradientTransform="translate(308.016 -32.0001) scale(308.984 2944.97)">
<stop stop-color="#0A0B12" stop-opacity="0"/>
<stop offset="0.0001" stop-color="white" stop-opacity="0"/>
<stop offset="1" stop-color="white"/>
</radialGradient>
<clipPath id="clip0_522_60">
<rect width="32" height="32" fill="white" transform="translate(365 19)"/>
</clipPath>
<clipPath id="clip1_522_60">
<rect width="32" height="32" fill="white" transform="translate(111 19)"/>
</clipPath>
<clipPath id="clip2_522_60">
<rect width="28.17" height="31.9" fill="white" transform="translate(225 19)"/>
</clipPath>
<clipPath id="clip3_522_60">
<rect width="21.91" height="31.87" fill="white" transform="translate(479 19)"/>
</clipPath>
<clipPath id="clip4_522_60">
<rect width="24.86" height="31.86" fill="white" transform="translate(61 19)"/>
</clipPath>
<clipPath id="clip5_522_60">
<rect width="25.02" height="31.99" fill="white" transform="translate(583 19)"/>
</clipPath>
<clipPath id="clip6_522_60">
<rect width="44" height="44" fill="white" transform="translate(296 13)"/>
</clipPath>
</defs>
</svg>
