<?xml version="1.0" encoding="UTF-8"?>
<!DOCTYPE svg PUBLIC "-//W3C//DTD SVG 1.1//EN" "http://www.w3.org/Graphics/SVG/1.1/DTD/svg11.dtd">
<!-- Creator: CorelDRAW -->
<svg xmlns="http://www.w3.org/2000/svg" xml:space="preserve" width="496px" height="52px" version="1.1" style="shape-rendering:geometricPrecision; text-rendering:geometricPrecision; image-rendering:optimizeQuality; fill-rule:evenodd; clip-rule:evenodd"
viewBox="0 0 177.9 18.46"
 xmlns:xlink="http://www.w3.org/1999/xlink"
 xmlns:xodm="http://www.corel.com/coreldraw/odm/2003">
 <defs>
  <style type="text/css">
   <![CDATA[
    .str0 {stroke:white;stroke-width:0.72;stroke-miterlimit:22.9256}
    .fil0 {fill:white;fill-rule:nonzero}
   ]]>
  </style>
 </defs>
 <g id="Слой_x0020_1">
  <metadata id="CorelCorpID_0Corel-Layer"/>
  <path class="fil0 str0" d="M0.36 17.97l0 -17.49 1.26 0 0 16.36 10.44 0 0 1.13 -11.7 0zm29.45 0.13c-1.39,0 -2.56,-0.25 -3.49,-0.74 -0.94,-0.49 -1.69,-1.16 -2.25,-2 -0.55,-0.85 -0.96,-1.8 -1.2,-2.85 -0.25,-1.06 -0.37,-2.13 -0.37,-3.23l0 -8.8 1.25 0 0 8.8c0,0.95 0.1,1.89 0.3,2.81 0.2,0.92 0.52,1.75 0.96,2.48 0.46,0.73 1.08,1.3 1.85,1.73 0.79,0.43 1.76,0.64 2.93,0.64 1.18,0 2.16,-0.22 2.93,-0.67 0.79,-0.44 1.41,-1.02 1.85,-1.74 0.46,-0.74 0.78,-1.57 0.96,-2.47 0.2,-0.92 0.3,-1.85 0.3,-2.78l0 -8.8 1.25 0 0 8.8c0,1.16 -0.13,2.28 -0.39,3.35 -0.25,1.05 -0.66,1.99 -1.23,2.81 -0.58,0.82 -1.33,1.47 -2.25,1.94 -0.92,0.48 -2.05,0.72 -3.4,0.72zm36.38 -0.13l0 -15.05 -6.87 11.78 -0.84 0 -6.87 -11.78 0 15.05 -1.26 0 0 -17.49 1.26 0 7.29 12.52 7.29 -12.52 1.26 0 0 17.49 -1.26 0zm14.8 0l0 -17.49 1.25 0 0 17.49 -1.25 0zm14.8 0l0 -17.49 7.27 0c0.76,0 1.44,0.16 2.05,0.47 0.62,0.31 1.16,0.73 1.6,1.26 0.46,0.51 0.81,1.08 1.06,1.72 0.26,0.64 0.39,1.3 0.39,1.97 0,0.87 -0.17,1.69 -0.51,2.44 -0.35,0.76 -0.83,1.39 -1.46,1.9 -0.61,0.51 -1.32,0.82 -2.14,0.93l4.36 6.8 -1.45 0 -4.24 -6.6 -5.67 0 0 6.6 -1.26 0zm1.26 -7.76l6.14 0c0.75,0 1.41,-0.2 1.97,-0.61 0.56,-0.41 0.98,-0.95 1.28,-1.6 0.31,-0.66 0.47,-1.36 0.47,-2.1 0,-0.75 -0.19,-1.45 -0.55,-2.09 -0.34,-0.66 -0.81,-1.18 -1.4,-1.58 -0.58,-0.41 -1.22,-0.62 -1.95,-0.62l-5.96 0 0 8.6zm23.7 7.76l0 -17.49 1.26 0 0 17.49 -1.26 0zm16.07 -15.15l0 15.15 -1.26 0 0 -17.49 1.04 0 12.19 15.4 0 -15.4 1.26 0 0 17.49 -1.23 0 -12 -15.15zm33.75 15.28c-1.18,0 -2.27,-0.26 -3.27,-0.77 -1.01,-0.51 -1.88,-1.18 -2.62,-2.02 -0.74,-0.85 -1.31,-1.8 -1.72,-2.85 -0.4,-1.07 -0.59,-2.16 -0.59,-3.26 0,-1.15 0.19,-2.25 0.59,-3.3 0.39,-1.07 0.95,-2.01 1.67,-2.83 0.73,-0.84 1.58,-1.5 2.57,-1.97 0.98,-0.5 2.06,-0.74 3.22,-0.74 1.75,0 3.15,0.36 4.22,1.08 1.08,0.71 1.9,1.62 2.46,2.74l-1.03 0.61c-0.59,-1.15 -1.38,-1.98 -2.37,-2.49 -0.97,-0.52 -2.07,-0.78 -3.3,-0.78 -1.03,0 -1.97,0.22 -2.81,0.66 -0.84,0.43 -1.55,1.01 -2.14,1.75 -0.59,0.72 -1.05,1.55 -1.36,2.46 -0.31,0.92 -0.47,1.87 -0.47,2.84 0,1.03 0.19,2.01 0.55,2.93 0.36,0.92 0.86,1.74 1.5,2.46 0.64,0.73 1.39,1.29 2.24,1.7 0.86,0.41 1.77,0.62 2.74,0.62 1.13,0 2.2,-0.27 3.2,-0.81 1,-0.56 1.96,-1.43 2.88,-2.61l0 1.4c-1.74,2.12 -3.79,3.18 -6.16,3.18zm5.89 -7.62l-3.97 0 0 -1.01 5.05 0 0 8.5 -1.08 0 0 -7.49z"/>
 </g>
</svg>
