<?xml version="1.0" encoding="UTF-8"?>
<!DOCTYPE svg PUBLIC "-//W3C//DTD SVG 1.1//EN" "http://www.w3.org/Graphics/SVG/1.1/DTD/svg11.dtd">
<!-- Creator: CorelDRAW -->
<svg xmlns="http://www.w3.org/2000/svg" xml:space="preserve" width="244px" height="244px" version="1.1" style="shape-rendering:geometricPrecision; text-rendering:geometricPrecision; image-rendering:optimizeQuality; fill-rule:evenodd; clip-rule:evenodd"
viewBox="0 0 52.55 52.55"
 xmlns:xlink="http://www.w3.org/1999/xlink"
 xmlns:xodm="http://www.corel.com/coreldraw/odm/2003">
 <defs>
  <style type="text/css">
   <![CDATA[
    .fil1 {fill:#00DBFF;fill-rule:nonzero}
    .fil0 {fill:white;fill-rule:nonzero}
   ]]>
  </style>
 </defs>
 <g id="Слой_x0020_1">
  <metadata id="CorelCorpID_0Corel-Layer"/>
  <path class="fil0" d="M7.08 27.76c0.71,9.37 8.25,16.95 17.62,17.71 10.64,0.87 19.69,-6.94 20.8,-17.1 0.09,-0.85 -0.57,-1.6 -1.42,-1.6 -0.72,0 -1.34,0.54 -1.42,1.26 -0.92,8.49 -8.32,15.06 -17.15,14.63 -8.21,-0.39 -14.96,-6.93 -15.58,-15.13 -0.7,-9.17 6.19,-16.93 15.04,-17.65 0.74,-0.06 1.3,-0.68 1.3,-1.42 0,-0.84 -0.72,-1.49 -1.56,-1.42 -10.38,0.86 -18.46,9.96 -17.63,20.72z"/>
  <path class="fil0" d="M0.04 27.71c0.72,13.27 11.43,24.02 24.71,24.8 14.52,0.84 26.72,-10.16 27.8,-24.22 0.06,-0.82 -0.6,-1.51 -1.43,-1.51 -0.75,0 -1.37,0.58 -1.43,1.33 -0.98,12.47 -11.76,22.23 -24.64,21.55 -11.94,-0.63 -21.59,-10.32 -22.16,-22.26 -0.62,-12.97 9.36,-23.79 22.01,-24.54 0.76,-0.05 1.36,-0.67 1.36,-1.43l0 0c0,-0.81 -0.68,-1.48 -1.49,-1.43 -14.27,0.84 -25.52,13.08 -24.73,27.71z"/>
  <path class="fil1" d="M26.32 38.66c-6.84,0 -12.41,-5.57 -12.41,-12.4 0,-6.84 5.57,-12.4 12.41,-12.4 6.84,0 12.41,5.56 12.41,12.4 0,6.83 -5.57,12.4 -12.41,12.4zm0 -21.95c-5.27,0 -9.55,4.28 -9.55,9.54 0,5.26 4.28,9.55 9.55,9.55 5.26,0 9.55,-4.28 9.55,-9.55 0,-5.26 -4.28,-9.54 -9.55,-9.54z"/>
  <path class="fil1" d="M29.51 8.71l-0.02 0.08c-0.13,0.72 0.33,1.4 1.04,1.59 5.83,1.54 10.4,6.22 11.79,12.11 0.17,0.71 0.89,1.16 1.61,1.03l0.07 -0.01c0.79,-0.14 1.28,-0.92 1.1,-1.7 -1.64,-6.91 -7.02,-12.39 -13.87,-14.19 -0.78,-0.22 -1.58,0.29 -1.72,1.09z"/>
  <path class="fil1" d="M50.86 22.27c0.8,-0.15 1.33,-0.92 1.15,-1.7 -2.17,-9.79 -9.82,-17.55 -19.55,-19.88 -0.8,-0.19 -1.59,0.34 -1.73,1.14 -0.14,0.75 0.34,1.47 1.09,1.64 8.65,2.09 15.45,8.98 17.39,17.69 0.17,0.75 0.9,1.25 1.65,1.11z"/>
 </g>
</svg>
