<?xml version="1.0" encoding="UTF-8"?>
<!DOCTYPE svg PUBLIC "-//W3C//DTD SVG 1.1//EN" "http://www.w3.org/Graphics/SVG/1.1/DTD/svg11.dtd">
<!-- Creator: CorelDRAW -->
<svg xmlns="http://www.w3.org/2000/svg" xml:space="preserve" width="496px" height="52px" version="1.1" style="shape-rendering:geometricPrecision; text-rendering:geometricPrecision; image-rendering:optimizeQuality; fill-rule:evenodd; clip-rule:evenodd"
viewBox="0 0 636.93 66.08"
 xmlns:xlink="http://www.w3.org/1999/xlink"
 xmlns:xodm="http://www.corel.com/coreldraw/odm/2003">
 <defs>
  <style type="text/css">
   <![CDATA[
    .str0 {stroke:#000A29;stroke-width:2.57;stroke-miterlimit:22.9256}
    .fil0 {fill:#000A29;fill-rule:nonzero}
   ]]>
  </style>
 </defs>
 <g id="Слой_x0020_1">
  <metadata id="CorelCorpID_0Corel-Layer"/>
  <path class="fil0 str0" d="M1.28 64.35l0 -62.63 4.5 0 0 58.58 37.4 0 0 4.05 -41.9 0zm105.46 0.44c-5,0 -9.17,-0.88 -12.52,-2.64 -3.36,-1.77 -6.03,-4.15 -8.03,-7.15 -2,-3.05 -3.44,-6.47 -4.32,-10.23 -0.89,-3.76 -1.33,-7.61 -1.33,-11.56l0 -31.49 4.5 0 0 31.49c0,3.42 0.36,6.77 1.06,10.06 0.71,3.29 1.85,6.26 3.44,8.91 1.65,2.59 3.85,4.65 6.62,6.18 2.82,1.52 6.32,2.29 10.49,2.29 4.24,0 7.74,-0.8 10.5,-2.38 2.82,-1.59 5.03,-3.68 6.62,-6.27 1.64,-2.64 2.79,-5.58 3.44,-8.82 0.7,-3.29 1.06,-6.61 1.06,-9.97l0 -31.49 4.49 0 0 31.49c0,4.18 -0.47,8.18 -1.41,12 -0.88,3.77 -2.35,7.12 -4.41,10.06 -2.06,2.94 -4.73,5.26 -8.02,6.97 -3.3,1.7 -7.36,2.55 -12.18,2.55zm130.24 -0.44l0 -53.89 -24.61 42.16 -3 0 -24.61 -42.16 0 53.89 -4.49 0 0 -62.63 4.49 0 26.11 44.82 26.11 -44.82 4.5 0 0 62.63 -4.5 0zm52.98 0l0 -62.63 4.49 0 0 62.63 -4.49 0zm53 0l0 -62.63 26.03 0c2.7,0 5.14,0.56 7.32,1.68 2.23,1.12 4.14,2.62 5.73,4.5 1.65,1.82 2.91,3.88 3.8,6.17 0.93,2.3 1.41,4.65 1.41,7.06 0,3.12 -0.62,6.03 -1.86,8.73 -1.23,2.71 -2.97,4.97 -5.2,6.79 -2.18,1.83 -4.74,2.95 -7.68,3.36l15.62 24.34 -5.21 0 -15.17 -23.64 -20.29 0 0 23.64 -4.5 0zm4.5 -27.78l21.97 0c2.7,0 5.05,-0.74 7.05,-2.21 2,-1.47 3.53,-3.38 4.59,-5.73 1.12,-2.35 1.68,-4.85 1.68,-7.5 0,-2.7 -0.65,-5.2 -1.94,-7.5 -1.24,-2.35 -2.91,-4.23 -5.03,-5.64 -2.06,-1.47 -4.38,-2.21 -6.97,-2.21l-21.35 0 0 30.79zm84.87 27.78l0 -62.63 4.49 0 0 62.63 -4.49 0zm57.51 -54.25l0 54.25 -4.5 0 0 -62.63 3.7 0 43.66 55.14 0 -55.14 4.5 0 0 62.63 -4.41 0 -42.95 -54.25zm120.85 54.69c-4.24,0 -8.15,-0.91 -11.74,-2.73 -3.58,-1.82 -6.7,-4.23 -9.35,-7.23 -2.64,-3.06 -4.7,-6.47 -6.17,-10.24 -1.41,-3.82 -2.12,-7.7 -2.12,-11.64 0,-4.12 0.71,-8.06 2.12,-11.82 1.41,-3.82 3.41,-7.2 6,-10.14 2.59,-3 5.64,-5.36 9.17,-7.06 3.53,-1.76 7.38,-2.65 11.56,-2.65 6.23,0 11.26,1.3 15.08,3.88 3.88,2.53 6.83,5.8 8.82,9.8l-3.7 2.2c-2.12,-4.12 -4.94,-7.09 -8.47,-8.91 -3.47,-1.88 -7.41,-2.82 -11.82,-2.82 -3.7,0 -7.06,0.79 -10.06,2.38 -3,1.53 -5.55,3.62 -7.67,6.26 -2.12,2.59 -3.73,5.53 -4.85,8.82 -1.12,3.3 -1.68,6.68 -1.68,10.15 0,3.7 0.65,7.2 1.94,10.5 1.3,3.29 3.09,6.23 5.38,8.82 2.3,2.58 4.97,4.61 8.03,6.08 3.06,1.47 6.32,2.21 9.79,2.21 4.06,0 7.88,-0.97 11.47,-2.91 3.59,-2 7.03,-5.12 10.32,-9.35l0 5.03c-6.23,7.58 -13.58,11.37 -22.05,11.37zm21.08 -27.25l-14.2 0 0 -3.62 18.08 0 0 30.43 -3.88 0 0 -26.81z"/>
 </g>
</svg>
