<?xml version="1.0" encoding="UTF-8"?>
<!DOCTYPE svg PUBLIC "-//W3C//DTD SVG 1.1//EN" "http://www.w3.org/Graphics/SVG/1.1/DTD/svg11.dtd">
<!-- Creator: CorelDRAW -->
<svg xmlns="http://www.w3.org/2000/svg" xml:space="preserve" width="244px" height="244px" version="1.1" style="shape-rendering:geometricPrecision; text-rendering:geometricPrecision; image-rendering:optimizeQuality; fill-rule:evenodd; clip-rule:evenodd"
viewBox="0 0 93.1 93.1"
 xmlns:xlink="http://www.w3.org/1999/xlink"
 xmlns:xodm="http://www.corel.com/coreldraw/odm/2003">
 <defs>
  <style type="text/css">
   <![CDATA[
    .fil0 {fill:#000A29;fill-rule:nonzero}
    .fil1 {fill:#00DBFF;fill-rule:nonzero}
   ]]>
  </style>
 </defs>
 <g id="Слой_x0020_1">
  <metadata id="CorelCorpID_0Corel-Layer"/>
  <path class="fil0" d="M12.54 49.18c1.27,16.6 14.61,30.02 31.22,31.38 18.85,1.54 34.87,-12.31 36.84,-30.31 0.17,-1.5 -1,-2.82 -2.51,-2.82 -1.28,0 -2.38,0.95 -2.51,2.23 -1.63,15.03 -14.75,26.67 -30.38,25.92 -14.56,-0.7 -26.51,-12.29 -27.62,-26.81 -1.23,-16.25 10.98,-29.99 26.66,-31.27 1.31,-0.1 2.3,-1.21 2.3,-2.51 0,-1.49 -1.28,-2.64 -2.77,-2.52 -18.38,1.52 -32.69,17.65 -31.23,36.71z"/>
  <path class="fil0" d="M0.07 49.09c1.28,23.51 20.25,42.55 43.77,43.93 25.73,1.49 47.33,-17.99 49.25,-42.9 0.11,-1.46 -1.07,-2.68 -2.53,-2.68 -1.33,0 -2.42,1.03 -2.53,2.36 -1.74,22.09 -20.84,39.38 -43.65,38.18 -21.15,-1.11 -38.25,-18.3 -39.27,-39.44 -1.1,-22.97 16.59,-42.14 39.01,-43.48 1.35,-0.08 2.41,-1.18 2.4,-2.52l0 -0.01c0,-1.44 -1.21,-2.61 -2.65,-2.53 -25.27,1.48 -45.2,23.17 -43.8,49.09z"/>
  <path class="fil1" d="M46.62 68.48c-12.12,0 -21.98,-9.86 -21.98,-21.97 0,-12.11 9.86,-21.96 21.98,-21.96 12.12,0 21.99,9.85 21.99,21.96 0,12.11 -9.86,21.97 -21.99,21.97zm0 -38.88c-9.33,0 -16.92,7.59 -16.92,16.91 0,9.32 7.6,16.91 16.92,16.91 9.33,0 16.92,-7.59 16.92,-16.91 0,-9.33 -7.59,-16.91 -16.92,-16.91z"/>
  <path class="fil1" d="M52.27 15.43l-0.03 0.14c-0.22,1.28 0.59,2.48 1.84,2.82 10.33,2.73 18.43,11.01 20.9,21.44 0.3,1.27 1.56,2.06 2.85,1.84l0.11 -0.02c1.4,-0.25 2.28,-1.64 1.95,-3.01 -2.9,-12.24 -12.42,-21.95 -24.56,-25.15 -1.39,-0.37 -2.8,0.52 -3.06,1.94z"/>
  <path class="fil1" d="M90.11 39.45c1.4,-0.26 2.34,-1.62 2.03,-3.01 -3.84,-17.35 -17.39,-31.08 -34.65,-35.22 -1.4,-0.34 -2.8,0.6 -3.05,2.03 -0.24,1.32 0.61,2.59 1.92,2.9 15.34,3.7 27.39,15.91 30.82,31.33 0.3,1.34 1.59,2.21 2.93,1.97z"/>
 </g>
</svg>
