<?xml version="1.0" encoding="utf-8"?>
<!-- Generator: Adobe Illustrator 25.4.1, SVG Export Plug-In . SVG Version: 6.00 Build 0)  -->
<svg version="1.1" id="light" xmlns="http://www.w3.org/2000/svg" xmlns:xlink="http://www.w3.org/1999/xlink" x="0px" y="0px"
	 viewBox="0 0 512 512" style="enable-background:new 0 0 512 512;" xml:space="preserve">
<g>
	<g>
		<path d="M405.3,488H106.7C83.1,488,64,468.9,64,445.3V280c0-23.5,19.1-42.7,42.7-42.7h298.7c23.5,0,42.7,19.1,42.7,42.7v165.3
			C448,468.9,428.9,488,405.3,488z M106.7,258.7c-11.8,0-21.3,9.6-21.3,21.3v165.3c0,11.8,9.6,21.3,21.3,21.3h298.7
			c11.8,0,21.3-9.6,21.3-21.3V280c0-11.8-9.6-21.3-21.3-21.3H106.7z"/>
	</g>
	<g>
		<path d="M373.3,175.7c-5.9,0-10.7-4.8-10.7-10.7v-13c0-58.8-47.9-106.7-106.7-106.7S149.3,93.2,149.3,152v96
			c0,5.9-4.8,10.7-10.7,10.7S128,253.9,128,248v-96c0-70.6,57.4-128,128-128s128,57.4,128,128v13C384,170.9,379.2,175.7,373.3,175.7
			z"/>
	</g>
</g>
</svg>
