<?xml version="1.0" encoding="UTF-8"?>
<!DOCTYPE svg PUBLIC "-//W3C//DTD SVG 1.1//EN" "http://www.w3.org/Graphics/SVG/1.1/DTD/svg11.dtd">
<!-- Creator: CorelDRAW -->
<svg xmlns="http://www.w3.org/2000/svg" xml:space="preserve" width="2591px" height="685px" version="1.1" style="shape-rendering:geometricPrecision; text-rendering:geometricPrecision; image-rendering:optimizeQuality; fill-rule:evenodd; clip-rule:evenodd"
viewBox="0 0 110.57 29.23"
 xmlns:xlink="http://www.w3.org/1999/xlink"
 xmlns:xodm="http://www.corel.com/coreldraw/odm/2003">
 <defs>
  <style type="text/css">
   <![CDATA[
    .fil0 {fill:#FEFEFE;fill-rule:nonzero}
    .fil1 {fill:#00A5D2;fill-rule:nonzero}
   ]]>
  </style>
 </defs>
 <g id="Слой_x0020_1">
  <metadata id="CorelCorpID_0Corel-Layer"/>
  <path class="fil0" d="M44.4 17.94c0.2,0 0.37,0.07 0.52,0.21 0.14,0.14 0.21,0.3 0.21,0.51 0,0.2 -0.07,0.36 -0.21,0.49 -0.15,0.13 -0.32,0.2 -0.52,0.2l-6.15 0c-0.2,0 -0.37,-0.07 -0.51,-0.21 -0.13,-0.15 -0.2,-0.32 -0.2,-0.52l0 -11c0,-0.21 0.07,-0.37 0.21,-0.51 0.14,-0.14 0.32,-0.21 0.54,-0.21 0.2,0 0.37,0.07 0.51,0.21 0.14,0.14 0.21,0.3 0.21,0.51l0 10.65 -0.35 -0.33 5.74 0z"/>
  <path class="fil0" d="M53.39 10.82c0.2,0 0.36,0.06 0.48,0.19 0.12,0.12 0.18,0.28 0.18,0.47l0 4.5c0,1.11 -0.31,1.98 -0.93,2.59 -0.62,0.61 -1.49,0.91 -2.6,0.91 -1.1,0 -1.96,-0.3 -2.58,-0.91 -0.62,-0.61 -0.93,-1.48 -0.93,-2.59l0 -4.5c0,-0.19 0.06,-0.35 0.19,-0.47 0.12,-0.13 0.28,-0.19 0.47,-0.19 0.2,0 0.36,0.06 0.48,0.19 0.12,0.12 0.18,0.28 0.18,0.47l0 4.5c0,0.75 0.19,1.32 0.58,1.7 0.38,0.39 0.92,0.58 1.61,0.58 0.72,0 1.27,-0.19 1.65,-0.58 0.38,-0.38 0.57,-0.95 0.57,-1.7l0 -4.5c0,-0.19 0.06,-0.35 0.18,-0.47 0.13,-0.13 0.29,-0.19 0.47,-0.19z"/>
  <path class="fil0" d="M68.41 11.6c-0.62,-0.61 -1.49,-0.91 -2.6,-0.91 -1.1,0 -1.96,0.3 -2.58,0.91 -0.1,0.1 -0.19,0.21 -0.28,0.32 -0.08,-0.11 -0.17,-0.22 -0.27,-0.32 -0.62,-0.61 -1.49,-0.91 -2.6,-0.91 -1.1,0 -1.96,0.3 -2.58,0.91 -0.62,0.61 -0.93,1.47 -0.93,2.58l0 4.51c0,0.19 0.06,0.34 0.19,0.47 0.12,0.13 0.28,0.19 0.47,0.19 0.19,0 0.35,-0.06 0.47,-0.19 0.13,-0.13 0.19,-0.28 0.19,-0.47l0 -4.51c0,-0.74 0.19,-1.31 0.57,-1.7 0.39,-0.38 0.93,-0.57 1.62,-0.57 0.72,0 1.26,0.19 1.64,0.57 0.38,0.39 0.57,0.96 0.57,1.7l0 4.51c0,0.19 0.06,0.34 0.19,0.47 0.13,0.13 0.28,0.19 0.47,0.19 0,0 0,0 0,0 0,0 0,0 0,0 0.2,0 0.36,-0.06 0.48,-0.19 0.12,-0.13 0.18,-0.28 0.18,-0.47l0 -4.51c0,-0.74 0.2,-1.31 0.58,-1.7 0.39,-0.38 0.93,-0.57 1.62,-0.57 0.71,0 1.26,0.19 1.64,0.57 0.38,0.39 0.57,0.96 0.57,1.7l0 4.51c0,0.19 0.06,0.34 0.19,0.47 0.13,0.13 0.28,0.19 0.47,0.19 0.2,0 0.36,-0.06 0.48,-0.19 0.12,-0.13 0.18,-0.28 0.18,-0.47l0 -4.51c0,-1.11 -0.31,-1.97 -0.93,-2.58z"/>
  <path class="fil0" d="M73.21 18.67c0,0.19 -0.06,0.35 -0.19,0.48 -0.12,0.13 -0.28,0.2 -0.47,0.2 -0.19,0 -0.35,-0.07 -0.47,-0.2 -0.13,-0.13 -0.19,-0.29 -0.19,-0.48l0 -7.32c0,-0.19 0.07,-0.35 0.19,-0.47 0.13,-0.13 0.29,-0.19 0.47,-0.19 0.19,0 0.35,0.06 0.47,0.19 0.13,0.12 0.19,0.28 0.19,0.47l0 7.32zm-0.66 -9.09c-0.27,0 -0.47,-0.05 -0.61,-0.16 -0.13,-0.11 -0.2,-0.29 -0.2,-0.52l0 -0.23c0,-0.23 0.08,-0.4 0.22,-0.51 0.14,-0.11 0.35,-0.16 0.61,-0.16 0.26,0 0.46,0.05 0.59,0.16 0.14,0.11 0.2,0.28 0.2,0.51l0 0.23c0,0.23 -0.07,0.41 -0.2,0.52 -0.14,0.11 -0.34,0.16 -0.61,0.16z"/>
  <path class="fil1" d="M78.64 8.27l4.05 0c0.61,0 1.11,0.21 1.51,0.63 0.39,0.41 0.59,0.93 0.59,1.56 0,0.49 -0.1,0.92 -0.29,1.31 -0.2,0.38 -0.45,0.68 -0.75,0.89 -0.3,0.22 -0.62,0.34 -0.97,0.36l-4.14 0 0 -4.75zm4.77 5.94c0,0 0,0 0.01,0 1.4,-0.49 2.46,-1.49 2.76,-2.77 0,0 0,0 -0.01,0 0.1,-0.32 0.15,-0.66 0.15,-1.02 0,-0.68 -0.16,-1.29 -0.47,-1.82 -0.31,-0.53 -0.74,-0.94 -1.27,-1.24 -0.53,-0.3 -1.13,-0.46 -1.8,-0.46l-4.9 0c-0.21,0 -0.37,0.07 -0.51,0.21 -0.14,0.14 -0.21,0.3 -0.21,0.51l0 11c0,0.2 0.08,0.37 0.24,0.52 0.16,0.14 0.36,0.21 0.58,0.21 0.2,0 0.36,-0.07 0.48,-0.21 0.12,-0.15 0.18,-0.32 0.18,-0.52l0 -4.32 3.24 0 3.23 4.75c0.1,0.16 0.25,0.25 0.42,0.29 0.18,0.03 0.34,0 0.5,-0.11 0.15,-0.11 0.25,-0.25 0.28,-0.42 0.03,-0.18 0,-0.34 -0.11,-0.5l-2.79 -4.1z"/>
  <path class="fil1" d="M90.29 18.67c0,0.19 -0.06,0.35 -0.19,0.48 -0.13,0.13 -0.28,0.2 -0.47,0.2 -0.2,0 -0.36,-0.07 -0.48,-0.2 -0.12,-0.13 -0.18,-0.29 -0.18,-0.48l0 -7.32c0,-0.19 0.06,-0.35 0.19,-0.47 0.12,-0.13 0.28,-0.19 0.47,-0.19 0.19,0 0.34,0.06 0.47,0.19 0.13,0.12 0.19,0.28 0.19,0.47l0 7.32zm-0.66 -9.09c-0.28,0 -0.48,-0.05 -0.61,-0.16 -0.13,-0.11 -0.2,-0.29 -0.2,-0.52l0 -0.23c0,-0.23 0.07,-0.4 0.21,-0.51 0.15,-0.11 0.35,-0.16 0.61,-0.16 0.27,0 0.47,0.05 0.6,0.16 0.13,0.11 0.2,0.28 0.2,0.51l0 0.23c0,0.23 -0.07,0.41 -0.21,0.52 -0.14,0.11 -0.34,0.16 -0.6,0.16z"/>
  <path class="fil1" d="M97.07 10.6c0.75,0 1.34,0.16 1.77,0.47 0.43,0.3 0.73,0.72 0.91,1.23 0.18,0.52 0.27,1.1 0.27,1.74l0 4.63c0,0.19 -0.06,0.35 -0.19,0.48 -0.12,0.13 -0.28,0.2 -0.47,0.2 -0.18,0 -0.34,-0.07 -0.47,-0.2 -0.12,-0.13 -0.19,-0.29 -0.19,-0.48l0 -4.6c0,-0.42 -0.06,-0.8 -0.19,-1.13 -0.12,-0.34 -0.33,-0.61 -0.62,-0.81 -0.29,-0.2 -0.69,-0.31 -1.2,-0.31 -0.46,0 -0.88,0.11 -1.27,0.31 -0.38,0.2 -0.69,0.47 -0.92,0.81 -0.23,0.33 -0.35,0.71 -0.35,1.13l0 4.6c0,0.19 -0.06,0.35 -0.19,0.48 -0.13,0.13 -0.28,0.2 -0.47,0.2 -0.19,0 -0.34,-0.07 -0.47,-0.2 -0.13,-0.13 -0.19,-0.29 -0.19,-0.48l0 -7.19c0,-0.19 0.06,-0.35 0.19,-0.47 0.13,-0.13 0.28,-0.19 0.47,-0.19 0.2,0 0.36,0.06 0.48,0.19 0.12,0.12 0.18,0.28 0.18,0.47l0 1.17 -0.33 0.36c0.05,-0.28 0.18,-0.57 0.38,-0.86 0.2,-0.29 0.44,-0.56 0.74,-0.79 0.3,-0.23 0.63,-0.41 0.99,-0.55 0.36,-0.14 0.74,-0.21 1.14,-0.21z"/>
  <path class="fil1" d="M106.38 11.82c-0.56,0 -1.07,0.14 -1.51,0.43 -0.45,0.28 -0.79,0.66 -1.04,1.14 -0.25,0.49 -0.37,1.04 -0.37,1.67 0,0.6 0.12,1.15 0.37,1.64 0.25,0.49 0.59,0.88 1.04,1.16 0.44,0.29 0.95,0.43 1.51,0.43 0.57,0 1.08,-0.14 1.52,-0.42 0.44,-0.28 0.78,-0.66 1.04,-1.14 0.25,-0.49 0.38,-1.04 0.38,-1.67 0,-0.64 -0.13,-1.2 -0.38,-1.68 -0.26,-0.49 -0.6,-0.87 -1.04,-1.14 -0.44,-0.28 -0.95,-0.42 -1.52,-0.42zm-0.17 -1.22c0.48,0 0.92,0.08 1.32,0.24 0.41,0.16 0.76,0.37 1.07,0.62 0.3,0.25 0.54,0.52 0.71,0.79 0.17,0.28 0.25,0.54 0.25,0.78l-0.31 -0.2 0 -1.43c0,-0.19 0.06,-0.35 0.18,-0.47 0.12,-0.13 0.28,-0.19 0.48,-0.19 0.19,0 0.34,0.06 0.47,0.19 0.13,0.12 0.19,0.28 0.19,0.47l0 7.22c0,0.91 -0.19,1.65 -0.57,2.25 -0.38,0.59 -0.89,1.04 -1.53,1.33 -0.63,0.3 -1.35,0.45 -2.14,0.45 -0.33,0 -0.69,-0.04 -1.09,-0.13 -0.4,-0.09 -0.75,-0.2 -1.06,-0.32 -0.31,-0.13 -0.5,-0.26 -0.59,-0.39 -0.17,-0.11 -0.27,-0.24 -0.31,-0.37 -0.04,-0.14 -0.01,-0.27 0.08,-0.39 0.1,-0.16 0.23,-0.23 0.39,-0.23 0.16,0 0.36,0.05 0.6,0.15 0.1,0.03 0.25,0.08 0.47,0.16 0.21,0.08 0.45,0.15 0.72,0.21 0.27,0.06 0.54,0.09 0.8,0.09 0.94,0 1.66,-0.25 2.16,-0.74 0.5,-0.49 0.75,-1.13 0.75,-1.93l0 -1.54 0.18 0.08c-0.07,0.31 -0.2,0.6 -0.4,0.86 -0.21,0.27 -0.45,0.5 -0.75,0.7 -0.29,0.21 -0.61,0.37 -0.96,0.48 -0.35,0.12 -0.71,0.17 -1.07,0.17 -0.77,0 -1.47,-0.19 -2.08,-0.57 -0.62,-0.39 -1.11,-0.92 -1.46,-1.59 -0.36,-0.67 -0.54,-1.43 -0.54,-2.29 0,-0.87 0.18,-1.64 0.54,-2.31 0.35,-0.67 0.84,-1.2 1.45,-1.58 0.61,-0.38 1.29,-0.57 2.05,-0.57z"/>
  <path class="fil1" d="M16.4 4.84l-0.01 0.05c-0.07,0.4 0.19,0.78 0.58,0.88 3.24,0.86 5.78,3.46 6.56,6.74 0.09,0.4 0.49,0.65 0.89,0.57l0.04 0c0.44,-0.08 0.71,-0.52 0.61,-0.95 -0.91,-3.84 -3.9,-6.89 -7.71,-7.9 -0.43,-0.11 -0.88,0.17 -0.96,0.61z"/>
  <path class="fil1" d="M28.27 12.39l0 0c0.45,-0.08 0.74,-0.51 0.64,-0.95 -1.2,-5.45 -5.46,-9.76 -10.87,-11.06 -0.44,-0.1 -0.88,0.19 -0.96,0.64l0 0c-0.07,0.42 0.2,0.81 0.61,0.91 4.81,1.16 8.59,5 9.67,9.84 0.09,0.42 0.49,0.69 0.91,0.62z"/>
  <path class="fil1" d="M14.63 9.3c-2.93,0 -5.31,2.38 -5.31,5.3 0,2.93 2.38,5.31 5.31,5.31 2.93,0 5.31,-2.38 5.31,-5.31 0,-2.92 -2.38,-5.3 -5.31,-5.3zm0 12.2c-3.8,0 -6.9,-3.09 -6.9,-6.9 0,-3.8 3.1,-6.89 6.9,-6.89 3.8,0 6.9,3.09 6.9,6.89 0,3.81 -3.1,6.9 -6.9,6.9z"/>
  <path class="fil0" d="M3.93 15.44c0.4,5.22 4.59,9.43 9.8,9.86 5.92,0.48 10.94,-3.87 11.56,-9.52 0.05,-0.47 -0.31,-0.89 -0.79,-0.89l0 0c-0.4,0 -0.74,0.3 -0.79,0.7 -0.51,4.72 -4.62,8.38 -9.53,8.14 -4.57,-0.21 -8.32,-3.85 -8.66,-8.41 -0.39,-5.11 3.44,-9.42 8.36,-9.82 0.41,-0.04 0.72,-0.39 0.72,-0.8l0 0c0,-0.46 -0.4,-0.83 -0.86,-0.79 -5.78,0.48 -10.26,5.55 -9.81,11.53z"/>
  <path class="fil0" d="M0.02 15.42c0.4,7.38 6.36,13.36 13.74,13.79 8.07,0.47 14.85,-5.65 15.45,-13.47 0.04,-0.46 -0.33,-0.85 -0.79,-0.85l0 0c-0.42,0 -0.76,0.33 -0.79,0.74 -0.55,6.94 -6.54,12.37 -13.7,12 -6.64,-0.35 -12.01,-5.75 -12.33,-12.39 -0.34,-7.21 5.21,-13.23 12.24,-13.65 0.43,-0.03 0.76,-0.37 0.76,-0.79l0 -0.01c0,-0.45 -0.38,-0.81 -0.83,-0.79 -7.93,0.46 -14.19,7.28 -13.75,15.42z"/>
 </g>
</svg>
