<svg width="169" height="27" viewBox="0 0 169 27" fill="none" xmlns="http://www.w3.org/2000/svg">
<g filter="url(#filter0_d_346_655)">
<path d="M5.046 21V5.38H6.168V19.988H15.496V21H5.046ZM31.3478 21.11C30.1011 21.11 29.0598 20.89 28.2238 20.45C27.3878 20.01 26.7204 19.416 26.2218 18.668C25.7231 17.9053 25.3638 17.0547 25.1438 16.116C24.9238 15.1773 24.8138 14.2167 24.8138 13.234V5.38H25.9358V13.234C25.9358 14.0847 26.0238 14.9207 26.1998 15.742C26.3758 16.5633 26.6618 17.304 27.0578 17.964C27.4684 18.6093 28.0184 19.1227 28.7078 19.504C29.4118 19.8853 30.2844 20.076 31.3258 20.076C32.3818 20.076 33.2544 19.878 33.9438 19.482C34.6478 19.086 35.1978 18.5653 35.5938 17.92C36.0044 17.26 36.2904 16.5267 36.4518 15.72C36.6278 14.8987 36.7158 14.07 36.7158 13.234V5.38H37.8378V13.234C37.8378 14.2753 37.7204 15.2727 37.4858 16.226C37.2658 17.1647 36.8991 18.0007 36.3858 18.734C35.8724 19.4673 35.2051 20.0467 34.3838 20.472C33.5624 20.8973 32.5504 21.11 31.3478 21.11ZM63.8307 21V7.558L57.6927 18.074H56.9447L50.8067 7.558V21H49.6847V5.38H50.8067L57.3187 16.556L63.8307 5.38H64.9527V21H63.8307ZM77.0421 21V5.38H78.1641V21H77.0421ZM90.2628 21V5.38H96.7528C97.4275 5.38 98.0361 5.51933 98.5788 5.798C99.1361 6.07667 99.6128 6.45067 100.009 6.92C100.419 7.37467 100.735 7.888 100.955 8.46C101.189 9.032 101.307 9.61867 101.307 10.22C101.307 10.9973 101.153 11.7233 100.845 12.398C100.537 13.0727 100.104 13.6373 99.5468 14.092C99.0041 14.5467 98.3661 14.8253 97.6328 14.928L101.527 21H100.229L96.4448 15.104H91.3848V21H90.2628ZM91.3848 14.07H96.8628C97.5375 14.07 98.1241 13.8867 98.6228 13.52C99.1215 13.1533 99.5028 12.6767 99.7668 12.09C100.045 11.5033 100.185 10.88 100.185 10.22C100.185 9.54533 100.023 8.922 99.7008 8.35C99.3928 7.76333 98.9748 7.294 98.4468 6.942C97.9335 6.57533 97.3541 6.392 96.7088 6.392H91.3848V14.07ZM112.55 21V5.38H113.672V21H112.55ZM126.893 7.47V21H125.771V5.38H126.695L137.585 19.13V5.38H138.707V21H137.607L126.893 7.47ZM157.034 21.11C155.978 21.11 155.003 20.8827 154.108 20.428C153.214 19.9733 152.436 19.372 151.776 18.624C151.116 17.8613 150.603 17.0107 150.236 16.072C149.884 15.1187 149.708 14.1507 149.708 13.168C149.708 12.1413 149.884 11.1587 150.236 10.22C150.588 9.26667 151.087 8.42333 151.732 7.69C152.378 6.942 153.14 6.35533 154.02 5.93C154.9 5.49 155.861 5.27 156.902 5.27C158.457 5.27 159.711 5.59267 160.664 6.238C161.632 6.86867 162.366 7.68267 162.864 8.68L161.94 9.23C161.412 8.20333 160.708 7.46267 159.828 7.008C158.963 6.53867 157.98 6.304 156.88 6.304C155.956 6.304 155.12 6.502 154.372 6.898C153.624 7.27933 152.986 7.8 152.458 8.46C151.93 9.10533 151.527 9.83867 151.248 10.66C150.97 11.4813 150.83 12.3247 150.83 13.19C150.83 14.114 150.992 14.9867 151.314 15.808C151.637 16.6293 152.084 17.3627 152.656 18.008C153.228 18.6533 153.896 19.1593 154.658 19.526C155.421 19.8927 156.235 20.076 157.1 20.076C158.112 20.076 159.066 19.834 159.96 19.35C160.855 18.8513 161.713 18.074 162.534 17.018V18.272C160.98 20.164 159.146 21.11 157.034 21.11ZM162.292 14.312H158.75V13.41H163.26V21H162.292V14.312Z" fill="white"/>
</g>
<defs>
<filter id="filter0_d_346_655" x="0.04599" y="0.270004" width="168.214" height="25.84" filterUnits="userSpaceOnUse" color-interpolation-filters="sRGB">
<feFlood flood-opacity="0" result="BackgroundImageFix"/>
<feColorMatrix in="SourceAlpha" type="matrix" values="0 0 0 0 0 0 0 0 0 0 0 0 0 0 0 0 0 0 127 0" result="hardAlpha"/>
<feOffset/>
<feGaussianBlur stdDeviation="2.5"/>
<feComposite in2="hardAlpha" operator="out"/>
<feColorMatrix type="matrix" values="0 0 0 0 1 0 0 0 0 1 0 0 0 0 1 0 0 0 0.65 0"/>
<feBlend mode="normal" in2="BackgroundImageFix" result="effect1_dropShadow_346_655"/>
<feBlend mode="normal" in="SourceGraphic" in2="effect1_dropShadow_346_655" result="shape"/>
</filter>
</defs>
</svg>
