<?xml version="1.0" encoding="UTF-8"?>
<!DOCTYPE svg PUBLIC "-//W3C//DTD SVG 1.1//EN" "http://www.w3.org/Graphics/SVG/1.1/DTD/svg11.dtd">
<!-- Creator: CorelDRAW -->
<svg xmlns="http://www.w3.org/2000/svg" xml:space="preserve" width="2591px" height="685px" version="1.1" style="shape-rendering:geometricPrecision; text-rendering:geometricPrecision; image-rendering:optimizeQuality; fill-rule:evenodd; clip-rule:evenodd"
viewBox="0 0 110.6 29.24"
 xmlns:xlink="http://www.w3.org/1999/xlink"
 xmlns:xodm="http://www.corel.com/coreldraw/odm/2003">
 <defs>
  <style type="text/css">
   <![CDATA[
    .fil1 {fill:#00DBFF;fill-rule:nonzero}
    .fil0 {fill:#08212A;fill-rule:nonzero}
   ]]>
  </style>
 </defs>
 <g id="Слой_x0020_1">
  <metadata id="CorelCorpID_0Corel-Layer"/>
  <path class="fil0" d="M44.41 17.95c0.2,0 0.38,0.07 0.52,0.2 0.14,0.14 0.21,0.31 0.21,0.51 0,0.2 -0.07,0.37 -0.21,0.5 -0.14,0.13 -0.32,0.19 -0.52,0.19l-6.15 0c-0.2,0 -0.37,-0.07 -0.51,-0.21 -0.13,-0.14 -0.2,-0.31 -0.2,-0.51l0 -11.01c0,-0.2 0.07,-0.37 0.21,-0.51 0.14,-0.14 0.32,-0.2 0.53,-0.2 0.21,0 0.38,0.06 0.52,0.2 0.14,0.14 0.21,0.31 0.21,0.51l0 10.65 -0.35 -0.32 5.74 0z"/>
  <path class="fil0" d="M53.41 10.82c0.2,0 0.36,0.06 0.48,0.19 0.12,0.13 0.18,0.28 0.18,0.47l0 4.51c0,1.11 -0.31,1.97 -0.93,2.58 -0.63,0.61 -1.49,0.92 -2.6,0.92 -1.1,0 -1.97,-0.31 -2.59,-0.92 -0.62,-0.61 -0.93,-1.47 -0.93,-2.58l0 -4.51c0,-0.19 0.06,-0.34 0.19,-0.47 0.13,-0.13 0.28,-0.19 0.47,-0.19 0.2,0 0.36,0.06 0.48,0.19 0.12,0.13 0.18,0.28 0.18,0.47l0 4.51c0,0.75 0.19,1.31 0.58,1.7 0.38,0.38 0.92,0.57 1.62,0.57 0.71,0 1.26,-0.19 1.64,-0.57 0.38,-0.39 0.57,-0.95 0.57,-1.7l0 -4.51c0,-0.19 0.06,-0.34 0.19,-0.47 0.12,-0.13 0.28,-0.19 0.47,-0.19z"/>
  <path class="fil0" d="M68.42 11.6c-0.62,-0.61 -1.48,-0.91 -2.6,-0.91 -1.1,0 -1.96,0.3 -2.58,0.91 -0.1,0.1 -0.19,0.21 -0.27,0.32 -0.09,-0.11 -0.18,-0.22 -0.28,-0.32 -0.62,-0.61 -1.48,-0.91 -2.6,-0.91 -1.1,0 -1.96,0.3 -2.58,0.91 -0.62,0.62 -0.93,1.48 -0.93,2.59l0 4.5c0,0.19 0.06,0.35 0.19,0.47 0.12,0.13 0.28,0.19 0.47,0.19 0.2,0 0.36,-0.06 0.48,-0.19 0.12,-0.12 0.18,-0.28 0.18,-0.47l0 -4.5c0,-0.75 0.19,-1.32 0.58,-1.7 0.38,-0.39 0.92,-0.58 1.61,-0.58 0.72,0 1.27,0.19 1.65,0.58 0.38,0.38 0.57,0.95 0.57,1.7l0 4.5c0,0.19 0.06,0.35 0.19,0.47 0.12,0.13 0.28,0.19 0.47,0.19 0,0 0,0 0,0 0,0 0,0 0,0 0.2,0 0.36,-0.06 0.48,-0.19 0.12,-0.12 0.18,-0.28 0.18,-0.47l0 -4.5c0,-0.75 0.19,-1.32 0.58,-1.7 0.38,-0.39 0.92,-0.58 1.61,-0.58 0.72,0 1.27,0.19 1.65,0.58 0.38,0.38 0.57,0.95 0.57,1.7l0 4.5c0,0.19 0.06,0.35 0.19,0.47 0.12,0.13 0.28,0.19 0.47,0.19 0.19,0 0.35,-0.06 0.47,-0.19 0.13,-0.12 0.19,-0.28 0.19,-0.47l0 -4.5c0,-1.11 -0.31,-1.97 -0.94,-2.59z"/>
  <path class="fil0" d="M72.57 9.58c-0.27,0 -0.48,-0.05 -0.61,-0.16 -0.13,-0.11 -0.2,-0.28 -0.2,-0.51l0 -0.24c0,-0.23 0.07,-0.4 0.22,-0.51 0.14,-0.11 0.34,-0.16 0.61,-0.16 0.26,0 0.46,0.05 0.59,0.16 0.13,0.11 0.2,0.28 0.2,0.51l0 0.24c0,0.23 -0.07,0.4 -0.21,0.51 -0.13,0.11 -0.34,0.16 -0.6,0.16zm0.66 9.1l0 0c0,0.18 -0.06,0.34 -0.19,0.48 -0.13,0.13 -0.28,0.19 -0.47,0.19 -0.2,0 -0.36,-0.06 -0.48,-0.19 -0.12,-0.14 -0.18,-0.3 -0.18,-0.48l0 -7.33c0,-0.19 0.06,-0.35 0.19,-0.47 0.13,-0.13 0.28,-0.19 0.47,-0.19 0.19,0 0.34,0.06 0.47,0.19 0.13,0.12 0.19,0.28 0.19,0.47l0 7.33z"/>
  <path class="fil1" d="M83.43 14.21c0,0 0,0 0.01,0 1.4,-0.49 2.46,-1.49 2.76,-2.77 0,0 0,0 -0.01,0 0.1,-0.32 0.15,-0.66 0.15,-1.01 0,-0.69 -0.16,-1.3 -0.47,-1.83 -0.31,-0.52 -0.74,-0.94 -1.27,-1.24 -0.53,-0.3 -1.13,-0.45 -1.8,-0.45l-4.91 0c-0.2,0 -0.37,0.06 -0.5,0.2 -0.14,0.14 -0.21,0.31 -0.21,0.51l0 11.01c0,0.2 0.08,0.37 0.24,0.51 0.16,0.14 0.36,0.21 0.58,0.21 0.2,0 0.36,-0.07 0.48,-0.21 0.12,-0.14 0.18,-0.31 0.18,-0.51l0 -4.33 3.24 0 3.23 4.76c0.1,0.15 0.25,0.25 0.42,0.28 0.18,0.04 0.34,0 0.5,-0.11 0.15,-0.1 0.25,-0.24 0.28,-0.42 0.03,-0.17 0,-0.34 -0.11,-0.49l-2.79 -4.11zm-4.77 -5.93l0 0 4.05 0c0.61,0 1.11,0.2 1.51,0.62 0.39,0.41 0.59,0.93 0.59,1.56 0,0.49 -0.1,0.92 -0.29,1.31 -0.2,0.38 -0.45,0.68 -0.75,0.9 -0.3,0.21 -0.62,0.33 -0.97,0.35l-4.14 0 0 -4.74z"/>
  <path class="fil1" d="M89.65 9.58c-0.28,0 -0.48,-0.05 -0.61,-0.16 -0.13,-0.11 -0.2,-0.28 -0.2,-0.51l0 -0.24c0,-0.23 0.07,-0.4 0.22,-0.51 0.14,-0.11 0.34,-0.16 0.61,-0.16 0.26,0 0.46,0.05 0.59,0.16 0.13,0.11 0.2,0.28 0.2,0.51l0 0.24c0,0.23 -0.07,0.4 -0.21,0.51 -0.14,0.11 -0.34,0.16 -0.6,0.16zm0.66 9.1l0 0c0,0.18 -0.06,0.34 -0.19,0.48 -0.13,0.13 -0.28,0.19 -0.47,0.19 -0.2,0 -0.36,-0.06 -0.48,-0.19 -0.12,-0.14 -0.18,-0.3 -0.18,-0.48l0 -7.33c0,-0.19 0.06,-0.35 0.19,-0.47 0.13,-0.13 0.28,-0.19 0.47,-0.19 0.19,0 0.34,0.06 0.47,0.19 0.13,0.12 0.19,0.28 0.19,0.47l0 7.33z"/>
  <path class="fil1" d="M97.09 10.61c0.75,0 1.34,0.15 1.77,0.46 0.43,0.31 0.73,0.72 0.92,1.24 0.18,0.51 0.27,1.09 0.27,1.73l0 4.64c0,0.18 -0.07,0.34 -0.19,0.48 -0.13,0.13 -0.29,0.19 -0.47,0.19 -0.19,0 -0.35,-0.06 -0.47,-0.19 -0.13,-0.14 -0.19,-0.3 -0.19,-0.48l0 -4.61c0,-0.42 -0.07,-0.79 -0.19,-1.13 -0.13,-0.33 -0.34,-0.6 -0.63,-0.81 -0.29,-0.2 -0.69,-0.3 -1.2,-0.3 -0.46,0 -0.88,0.1 -1.27,0.3 -0.38,0.21 -0.69,0.48 -0.92,0.81 -0.23,0.34 -0.35,0.71 -0.35,1.13l0 4.61c0,0.18 -0.06,0.34 -0.19,0.48 -0.12,0.13 -0.28,0.19 -0.47,0.19 -0.19,0 -0.34,-0.06 -0.47,-0.19 -0.13,-0.14 -0.19,-0.3 -0.19,-0.48l0 -7.2c0,-0.19 0.06,-0.34 0.19,-0.47 0.13,-0.13 0.28,-0.19 0.47,-0.19 0.2,0 0.36,0.06 0.48,0.19 0.12,0.13 0.18,0.28 0.18,0.47l0 1.17 -0.33 0.37c0.06,-0.29 0.18,-0.58 0.38,-0.87 0.2,-0.29 0.45,-0.55 0.74,-0.78 0.3,-0.24 0.63,-0.42 0.99,-0.56 0.37,-0.14 0.75,-0.2 1.14,-0.2z"/>
  <path class="fil1" d="M106.24 10.61c0.47,0 0.91,0.08 1.32,0.24 0.41,0.15 0.76,0.36 1.06,0.61 0.31,0.26 0.54,0.52 0.71,0.8 0.17,0.27 0.26,0.53 0.26,0.77l-0.32 -0.2 0 -1.43c0,-0.19 0.07,-0.35 0.19,-0.47 0.12,-0.13 0.28,-0.19 0.48,-0.19 0.18,0 0.34,0.06 0.47,0.19 0.12,0.12 0.19,0.28 0.19,0.47l0 7.23c0,0.9 -0.19,1.65 -0.57,2.24 -0.38,0.6 -0.89,1.04 -1.53,1.34 -0.64,0.3 -1.35,0.45 -2.15,0.45 -0.33,0 -0.69,-0.05 -1.09,-0.14 -0.39,-0.08 -0.74,-0.19 -1.05,-0.32 -0.31,-0.13 -0.51,-0.25 -0.6,-0.39 -0.16,-0.11 -0.26,-0.23 -0.3,-0.37 -0.04,-0.14 -0.02,-0.26 0.07,-0.39 0.1,-0.15 0.23,-0.23 0.39,-0.23 0.16,0 0.36,0.05 0.6,0.15 0.1,0.03 0.26,0.09 0.47,0.17 0.22,0.07 0.46,0.14 0.73,0.2 0.27,0.06 0.54,0.09 0.8,0.09 0.93,0 1.65,-0.24 2.15,-0.73 0.5,-0.49 0.75,-1.14 0.75,-1.94l0 -1.54 0.19 0.09c-0.07,0.31 -0.2,0.59 -0.41,0.86 -0.2,0.26 -0.45,0.49 -0.74,0.7 -0.29,0.2 -0.61,0.36 -0.97,0.48 -0.35,0.11 -0.71,0.17 -1.07,0.17 -0.77,0 -1.46,-0.19 -2.08,-0.58 -0.62,-0.38 -1.1,-0.91 -1.46,-1.58 -0.36,-0.67 -0.54,-1.44 -0.54,-2.3 0,-0.87 0.18,-1.64 0.54,-2.31 0.36,-0.67 0.84,-1.19 1.45,-1.57 0.61,-0.38 1.3,-0.57 2.06,-0.57zm0.16 1.22l0 0c-0.56,0 -1.06,0.14 -1.51,0.42 -0.44,0.28 -0.79,0.66 -1.04,1.15 -0.24,0.48 -0.37,1.04 -0.37,1.66 0,0.61 0.13,1.16 0.37,1.64 0.25,0.49 0.6,0.88 1.04,1.17 0.45,0.28 0.95,0.43 1.51,0.43 0.57,0 1.08,-0.14 1.52,-0.42 0.44,-0.28 0.79,-0.67 1.04,-1.15 0.25,-0.48 0.38,-1.04 0.38,-1.67 0,-0.64 -0.13,-1.2 -0.38,-1.68 -0.25,-0.49 -0.6,-0.86 -1.04,-1.14 -0.44,-0.27 -0.95,-0.41 -1.52,-0.41z"/>
  <path class="fil1" d="M16.41 4.84l-0.01 0.05c-0.07,0.4 0.18,0.78 0.57,0.88 3.25,0.86 5.79,3.46 6.56,6.74 0.1,0.4 0.5,0.65 0.9,0.58l0.03 -0.01c0.44,-0.08 0.72,-0.51 0.62,-0.95 -0.92,-3.84 -3.9,-6.89 -7.71,-7.9 -0.44,-0.11 -0.88,0.17 -0.96,0.61z"/>
  <path class="fil1" d="M28.28 12.39c0.44,-0.08 0.74,-0.51 0.64,-0.95 -1.21,-5.44 -5.46,-9.76 -10.87,-11.06 -0.45,-0.1 -0.88,0.19 -0.96,0.64l0 0c-0.08,0.42 0.19,0.81 0.6,0.91 4.81,1.16 8.6,5 9.67,9.84 0.1,0.42 0.5,0.7 0.92,0.62z"/>
  <path class="fil1" d="M14.63 21.51c-3.8,0 -6.9,-3.1 -6.9,-6.9 0,-3.81 3.1,-6.9 6.9,-6.9 3.81,0 6.9,3.09 6.9,6.9 0,3.8 -3.09,6.9 -6.9,6.9zm0 -12.21l0 0c-2.93,0 -5.31,2.38 -5.31,5.31 0,2.93 2.38,5.31 5.31,5.31 2.93,0 5.31,-2.38 5.31,-5.31 0,-2.93 -2.38,-5.31 -5.31,-5.31z"/>
  <path class="fil0" d="M3.93 15.45c0.4,5.21 4.59,9.43 9.8,9.85 5.92,0.49 10.95,-3.86 11.57,-9.52 0.05,-0.47 -0.32,-0.88 -0.79,-0.88 -0.4,0 -0.75,0.3 -0.79,0.7 -0.51,4.72 -4.63,8.38 -9.54,8.14 -4.56,-0.22 -8.32,-3.86 -8.66,-8.42 -0.39,-5.11 3.44,-9.42 8.37,-9.82 0.41,-0.04 0.72,-0.38 0.72,-0.79 0,-0.47 -0.41,-0.83 -0.87,-0.8 -5.77,0.48 -10.26,5.55 -9.81,11.54z"/>
  <path class="fil0" d="M0.02 15.42c0.4,7.38 6.36,13.36 13.74,13.8 8.08,0.47 14.86,-5.65 15.46,-13.48 0.03,-0.46 -0.34,-0.84 -0.79,-0.84 -0.42,0 -0.76,0.32 -0.8,0.74 -0.54,6.94 -6.54,12.37 -13.7,11.99 -6.64,-0.35 -12.01,-5.74 -12.33,-12.38 -0.34,-7.22 5.21,-13.24 12.25,-13.66 0.42,-0.03 0.75,-0.37 0.75,-0.79l0 -0.01c0,-0.45 -0.38,-0.82 -0.83,-0.79 -7.93,0.46 -14.19,7.28 -13.75,15.42z"/>
 </g>
</svg>
