<svg width="98" height="98" viewBox="0 0 98 98" fill="none" xmlns="http://www.w3.org/2000/svg">
<g filter="url(#filter0_d_346_667)">
<path d="M20.5031 51.2054C21.5665 65.1129 32.7509 76.3546 46.665 77.493C62.459 78.7832 75.8794 67.1857 77.5314 52.1019C77.6691 50.8449 76.6912 49.7397 75.4237 49.7397C74.3508 49.7397 73.4346 50.5366 73.3207 51.6039C71.9582 64.2022 60.9684 73.9545 47.8708 73.3236C35.6705 72.7402 25.6586 63.0306 24.7329 50.8639C23.698 37.2458 33.9282 25.7337 47.0685 24.6664C48.1604 24.5763 48.9959 23.6514 48.9912 22.5556C48.9912 21.3081 47.9183 20.3453 46.6745 20.4449C31.2698 21.7208 19.2831 35.2346 20.5031 51.2054Z" fill="white"/>
<path d="M10.0586 51.1332C11.1268 70.8275 27.0252 86.7841 46.7309 87.932C68.2927 89.189 86.3891 72.8624 87.9937 51.9917C88.0886 50.7727 87.1012 49.7434 85.8764 49.7434C84.7608 49.7434 83.8446 50.6066 83.7592 51.7213C82.3018 70.2346 66.2942 84.7208 47.1866 83.7152C29.4653 82.7807 15.1334 68.3847 14.2837 50.6683C13.3627 31.4246 28.1835 15.3636 46.9635 14.2394C48.0933 14.173 48.9811 13.2528 48.9763 12.1239V12.1192C48.9763 10.9144 47.9652 9.93249 46.7594 10.0036C25.582 11.2417 8.88132 29.4134 10.0586 51.1332Z" fill="white"/>
</g>
<path d="M49.062 67.3754C38.9077 67.3754 30.6428 59.1173 30.6428 48.9713C30.6428 38.8253 38.9077 30.5671 49.062 30.5671C59.2163 30.5671 67.4812 38.8253 67.4812 48.9713C67.4812 59.1173 59.221 67.3754 49.062 67.3754ZM49.062 34.8029C41.2433 34.8029 34.8868 41.159 34.8868 48.9665C34.8868 56.7741 41.248 63.1349 49.062 63.1349C56.8759 63.1349 63.2372 56.7788 63.2372 48.9665C63.2372 41.1543 56.8806 34.8029 49.062 34.8029Z" fill="#00DBFF"/>
<path d="M53.7954 22.9255L53.7716 23.0488C53.5817 24.1161 54.2606 25.1264 55.3097 25.4063C63.9686 27.6973 70.7524 34.6321 72.8175 43.3741C73.0691 44.4366 74.1324 45.1006 75.2101 44.9109L75.3003 44.8919C76.4728 44.6832 77.2086 43.5259 76.9333 42.3732C74.5027 32.1181 66.5274 23.9833 56.3589 21.3033C55.1958 20.9902 54.009 21.7349 53.7954 22.9255Z" fill="#00DBFF"/>
<path d="M85.4967 43.0516C86.674 42.8382 87.4573 41.695 87.1962 40.5282C83.9776 25.9946 72.627 14.4872 58.1717 11.0246C56.9944 10.74 55.8218 11.5274 55.6082 12.7227C55.4088 13.8326 56.1209 14.8904 57.2223 15.156C70.073 18.2534 80.1655 28.4848 83.0471 41.4057C83.2987 42.5251 84.3716 43.2556 85.4967 43.0516Z" fill="#00DBFF"/>
<defs>
<filter id="filter0_d_346_667" x="0" y="0" width="98" height="98" filterUnits="userSpaceOnUse" color-interpolation-filters="sRGB">
<feFlood flood-opacity="0" result="BackgroundImageFix"/>
<feColorMatrix in="SourceAlpha" type="matrix" values="0 0 0 0 0 0 0 0 0 0 0 0 0 0 0 0 0 0 127 0" result="hardAlpha"/>
<feMorphology radius="2" operator="dilate" in="SourceAlpha" result="effect1_dropShadow_346_667"/>
<feOffset/>
<feGaussianBlur stdDeviation="4"/>
<feComposite in2="hardAlpha" operator="out"/>
<feColorMatrix type="matrix" values="0 0 0 0 1 0 0 0 0 1 0 0 0 0 1 0 0 0 0.74 0"/>
<feBlend mode="normal" in2="BackgroundImageFix" result="effect1_dropShadow_346_667"/>
<feBlend mode="normal" in="SourceGraphic" in2="effect1_dropShadow_346_667" result="shape"/>
</filter>
</defs>
</svg>
