<svg xmlns="http://www.w3.org/2000/svg" viewBox="0 0 1300 1300"><title>человек</title><g id="Слой_4" data-name="Слой 4"><path d="M1099.93,64.07a136.43,136.43,0,0,1,136,136v899.86a136.43,136.43,0,0,1-136,136H200.07a136.43,136.43,0,0,1-136-136V200.07a136.43,136.43,0,0,1,136-136h899.86m0-14H200.07c-82.5,0-150,67.5-150,150v899.86c0,82.5,67.5,150,150,150h899.86c82.5,0,150-67.5,150-150V200.07c0-82.5-67.5-150-150-150Z" style="fill:#91a4c4"/><path d="M640.9,271c73.77,0,132.6,17.57,179.83,53.65,22.39,17.1,36.85,44.5,43,81.44,5.8,35,2,66.56.74,75.41-.4,2.79-.8,5.46-1.18,8-4.32,29.09-6.7,45.12,2.6,55.91,3.17,3.67,9.1,8,19.35,8,.95,0,1.94,0,2.95-.11h.19c2.22.64,13.18,14.89,11.43,67.17-.71,21.5-4.46,43-10.54,60.42-5.94,17.07-11.88,23.81-14.1,25.32a20.88,20.88,0,0,1-3.14-.79,26.84,26.84,0,0,0-8.07-1.46c-17,0-20.49,18.27-24.22,37.62-6,30.88-22.61,57.88-35.54,75.1-16.45,21.9-32.52,35.68-39.31,39.6-17.79,10.26-20.77,37.72-17.21,53.94,4.19,19,16.1,22.21,21.1,22.68.38.06,3,.56,11.12,4.16l1.51.67,1.62.3a710.6,710.6,0,0,1,180.73,59.67,747.82,747.82,0,0,1,158.09,103.75l.34.28a789.37,789.37,0,0,1,83.67,83.16,136.05,136.05,0,0,1-105.91,51H629.66c-17.06,0-33.81.1-50,.2-15.8.1-30.71.19-45.54.19-17.12,0-31.19-.12-44.3-.39H200.07A133.76,133.76,0,0,1,138.32,1221a138.28,138.28,0,0,1-40.2-31.34,792.12,792.12,0,0,1,73-75l0,0a754.42,754.42,0,0,1,149.29-104.77,714.15,714.15,0,0,1,170.73-64.65l2-.49,1.81-1.06c15.65-9.19,20.51-10.87,21.76-11.18,5.14-.56,16.72-3.94,20.83-22.65,3.56-16.22.58-43.68-17.21-53.94-6.79-3.92-22.86-17.7-39.31-39.6-12.93-17.22-29.59-44.23-35.54-75.11-3.73-19.34-7.25-37.62-24.22-37.62a26.51,26.51,0,0,0-8.07,1.47,22.88,22.88,0,0,1-3.14.79c-2.21-1.52-8.15-8.26-14.1-25.33-6.08-17.46-9.82-38.91-10.54-60.41-1.74-52.28,9.21-66.53,11.43-67.17h.19c1,.07,2,.11,3,.11,10.24,0,16.17-4.38,19.34-8.06,9.3-10.78,6.92-26.82,2.6-55.92-.38-2.56-.77-5.22-1.18-8-1.29-8.85-5.06-40.44.75-75.41,6.12-36.94,20.58-64.34,43-81.45a249.56,249.56,0,0,1,90.31-43.43c25.72-6.57,53.81-9.77,85.86-9.77h.16m-.16-14c-54.25,0-122.4,8.52-184.67,56.08C397.23,358,402.48,452.22,407,483.09c5.69,39,9.47,56-6.91,56-.63,0-1.28,0-2-.08-.37,0-.74,0-1.11,0-17.24,0-27.24,29.53-25.5,81.64,1.76,53,20.66,99.35,37.89,99.35h.25c5.45-.14,9-2.33,11.7-2.33,3.95,0,6.28,4.54,10.47,26.27,11.76,61,62.63,113.23,81.61,124.18,15.37,8.87,14.78,49.38,1.77,50.56-4.42.4-13.93,5.2-27.24,13-122.13,29-233.36,89.26-326.16,172.63h0A805.65,805.65,0,0,0,80,1189.51a150,150,0,0,0,120.11,60.42H489.53c14.51.29,29.37.39,44.58.39,30.43,0,62.25-.39,95.55-.39h470.27a150.17,150.17,0,0,0,123.8-65.57,802.1,802.1,0,0,0-92.47-93.2h0C1032.71,1007,914.64,948.34,785.57,924.34c-7.08-3.14-12.34-5-15.48-5.3-13-1.18-13.6-41.69,1.78-50.55,19-11,69.84-63.18,81.6-124.18C857.66,722.58,860,718,863.94,718c2.74,0,6.26,2.18,11.7,2.32h.25c17.23,0,36.13-46.37,37.89-99.34,1.74-52.12-8.26-81.64-25.5-81.64-.37,0-.73,0-1.1,0-.69.05-1.34.07-2,.07-16.39,0-12.61-16.93-6.91-55.95,4.5-30.87,9.75-125.07-49.08-170C766.91,265.94,695.35,257,640.9,257Z" style="fill:#91a4c4"/></g></svg>