<svg xmlns="http://www.w3.org/2000/svg" viewBox="0 0 1300 1300"><title>авто</title><g id="Слой_4" data-name="Слой 4"><path d="M1099.93,64.07a136.43,136.43,0,0,1,136,136v899.86a136.43,136.43,0,0,1-136,136H200.07a136.43,136.43,0,0,1-136-136V200.07a136.43,136.43,0,0,1,136-136h899.86m0-14H200.07c-82.5,0-150,67.5-150,150v899.86c0,82.5,67.5,150,150,150h899.86c82.5,0,150-67.5,150-150V200.07c0-82.5-67.5-150-150-150Z" style="fill:#91a4c4"/><path d="M661.34,406.68q23.52,0,47,.61c40.42,1.08,80.85,2,121.25,3.59,22.77.88,40.26,11.7,51.41,31.59,12.9,23,25.58,46.12,37.54,69.61,6.51,12.79,11,19,16.54,19,4.67,0,10.1-4.39,18.17-13,6-6.41,12.94-9.21,20.71-9.21a34.81,34.81,0,0,1,4.62.31c16.5,2.14,32.93,5.46,40.41,23,5.25,12.31,1.15,21.19-11.79,24.83-9.18,2.59-19,3.38-28.57,4.06-3.59.26-7.19.33-10.95.33-5.89,0-12.18-.19-19.41-.19,3.3,3.61,4.75,5.49,6.5,7.05,8.72,7.8,17.75,15.27,26.25,23.3,23.79,22.47,35.6,50.35,36.67,83,1.71,52.11,4.24,104.21,4.9,156.33.3,23.59-2.62,47.27-5,70.81a42.56,42.56,0,0,1-7.39,19.4c-3.34,4.72-9.43,10.17-14.59,10.47q-19,1.13-38.2,1.14-13.38,0-26.75-.59c-13.21-.6-19.61-8.31-20.93-21.42a203.31,203.31,0,0,1-1.27-27c.26-7.61-2.63-9.71-9.85-9.86-53.49-1.09-107-3.57-160.44-3.61h-8.65c-98.77,0-197.53,1.16-296.31,2-13.69.11-27.38,1.41-41.07,1.74-5.59.14-7.78,2.44-7.83,7.82-.08,9-.11,18.07-.73,27.06-1,14.59-7,22.55-21.27,23.26-8.42.42-16.87.6-25.31.6-13.56,0-27.13-.46-40.66-1.09-9.18-.43-15.27-8.08-17.07-16.4-3.85-17.84-8.56-36-8.61-54.05-.14-59.84,3.15-119.7,2.05-179.5-.58-31.25,8.7-55.66,30.93-76.69C317.46,592,330,577.57,343,563.79c-.17-.86-.35-1.73-.52-2.59-3.86,0-7.74.14-11.6.14-2.35,0-4.69-.05-7-.22-11.62-.85-23.32-1.55-34.77-3.53-7.44-1.29-15.69-3.76-17.29-12.94-1.69-9.71,2.46-18.25,9.91-23.86,9.67-7.29,20.86-11.6,32.45-11.6a46.19,46.19,0,0,1,10.06,1.1c7.13,1.57,14,8.57,19,14.75,5.08,6.33,8.51,9.62,11.67,9.62,3.32,0,6.33-3.65,10.62-11.23,12.68-22.36,25.4-44.7,38-67.13,16.3-29.13,40.75-41.82,74.38-43.57,61.17-3.17,122.3-6.05,183.5-6.05M376.76,557h.79c38.07-1.32,76.19-1.9,114.2-4.31C547.14,549.13,602.51,546,658,546c21,0,42.1.45,63.17,1.51,64.41,3.25,128.84,6.12,193.26,9.08.48,0,1,0,1.45,0,3.24,0,6.66-.45,11.31-.71-18.41-35.33-36.1-68.62-53.11-102.25C867.65,441,858,434.49,844.37,433c-7.64-.84-15.26-2-22.92-2.41-38-1.87-76.07-4.4-114.14-5.09q-32-.57-63.94-.61c-63.57,0-127.09,2-190.51,7.7-16.25,1.46-28.2,8.63-35.88,23.43-12.76,24.6-26.23,48.83-39.06,73.39-4.24,8.13-7.43,16.81-11.71,26.65,4.54.38,7.62.91,10.55.91m213,243.24,53,0h3.13c19.55,0,39.1.09,58.65.09q19.29,0,38.57-.17c26-.28,46.15-20.67,46.66-46.59.22-11.36.28-22.73,0-34.08-.7-25.46-20.76-46-46.09-46.08q-47.64-.23-95.29-.23-49.08,0-98.17.25c-26.1.13-45.94,20.38-46.69,46.53-.3,10.35-.22,20.72-.11,31.07.3,29,20.35,49.06,49.27,49.17q18.57.08,37.12.07m334.45-30.89A170.6,170.6,0,0,0,945.17,768c32-3.95,48.8-22.87,47.4-52.19-.37-7.76-3.31-10.08-10.76-10.72-9.81-.84-19.59-1.22-29.36-1.22-26.63,0-53.09,2.83-79.45,6.86-17,2.59-33.54,7.52-52.35,11.87,7.9,17.34,17.59,27.88,32.09,33.12,23.27,8.42,47,13.57,71.48,13.57m-553,.2c25.69,0,50.73-6.36,75.08-16.52,11.61-4.84,19.42-14.82,25.26-28.15-4.87-2.15-8.6-4.39-12.65-5.51-38-10.53-76.6-15.13-115.62-15.13q-17,0-34.2,1.14c-6,.39-7.69,3.36-8.21,8.9-2.48,26.41,10.35,45.53,36.86,51.54a151.23,151.23,0,0,0,33.48,3.73M661.34,392.68c-62.17,0-125.1,3-184.22,6.07-39.86,2.07-67.95,18.66-85.88,50.71-9.57,17.1-19.41,34.45-28.93,51.22l-8.57,15.11c-8.88-10.93-17.55-17.21-26.49-19.18a61.36,61.36,0,0,0-13.08-1.42c-14.23,0-28.36,5-40.88,14.42-12.07,9.09-17.77,23.09-15.27,37.45a27.05,27.05,0,0,0,13,19c5.37,3.23,11.2,4.54,15.68,5.31,9.16,1.59,18.34,2.39,27.3,3.06-6.6,7.09-13.09,13.88-19.95,20.37-24.76,23.41-36,51.09-35.31,87.12.62,33.28-.16,67.3-.91,100.19-.59,25.9-1.2,52.67-1.14,79.08.05,16.94,3.7,33.35,7.23,49.23q.85,3.89,1.7,7.74c3.39,15.73,15.49,26.75,30.1,27.44,16.09.75,29.22,1.1,41.31,1.1,9.22,0,17.72-.2,26-.62,12-.6,32.45-6.11,34.53-36.27.52-7.42.65-14.82.72-22,4.41-.18,8.79-.43,13.07-.67,7.6-.42,14.77-.82,22-.88q33.63-.29,67.25-.6c75-.68,152.65-1.38,228.94-1.38h8.64c33.89,0,68.45,1,101.87,2,17.81.53,36.18,1.08,54.36,1.47a237.64,237.64,0,0,0,1.41,24.36c2.08,20.72,14.55,33.11,34.23,34,9,.41,18.17.61,27.38.61,12.74,0,25.87-.39,39-1.16,13.56-.8,23.38-13.79,25.21-16.38a56.62,56.62,0,0,0,9.88-26.05q.5-4.9,1-9.81c2.13-20.39,4.33-41.47,4.06-62.6-.46-36.41-1.85-73.33-3.2-109-.58-15.6-1.19-31.73-1.71-47.57-1.21-36.92-15-68.1-41.05-92.68-2.38-2.25-4.8-4.46-7.23-6.62,9.68-.75,18.6-1.73,27.6-4.27,13-3.66,18.86-11,21.51-16.52s4.69-14.77-.64-27.28c-11.15-26.18-37.39-29.59-51.49-31.43a50.37,50.37,0,0,0-6.42-.42c-12,0-22.42,4.58-30.92,13.63a93.77,93.77,0,0,1-6.74,6.65c-1.2-1.85-2.9-4.79-5.28-9.46-13.25-26-27.17-51.14-37.81-70.11-13.61-24.27-35.43-37.67-63.08-38.73-33.55-1.28-67.64-2.18-100.61-3l-20.8-.55c-15.21-.41-31.16-.62-47.43-.62Zm-274.24,150c1-2.33,2.1-4.56,3.23-6.74,6-11.55,12.34-23.26,18.43-34.58,6.83-12.68,13.88-25.79,20.65-38.84,5.23-10.09,12.62-14.85,24.71-15.94,57.21-5.14,119.11-7.64,189.25-7.64,20.23,0,41.06.2,63.69.61,27.85.5,56.27,2,83.76,3.51,9.81.53,19.95,1.07,29.94,1.57,4.84.24,9.78.85,15,1.49,2.31.29,4.69.58,7.08.84,9.1,1,14.52,4.78,18.71,13.06,12.16,24,24.47,47.54,37.5,72.41q2.52,4.8,5.08,9.71l-25.72-1.18c-51.33-2.34-104.4-4.77-156.57-7.4-20.48-1-41.38-1.53-63.88-1.53-56.73,0-113.65,3.31-167.1,6.7-26.87,1.7-54.37,2.5-81,3.27-7.49.22-15.15.44-22.8.68ZM589.77,786.21c-14.38,0-26.16,0-37.06-.06-21.24-.09-35.11-13.95-35.33-35.32-.11-10.87-.18-20.67.1-30.53.54-19,14.33-32.84,32.77-32.93,32.39-.17,65.4-.25,98.1-.25,31.44,0,63.48.08,95.22.23,17.54.09,31.67,14.35,32.17,32.47.27,9.89.28,20.5,0,33.41-.36,18.54-14.47,32.67-32.8,32.87-11.37.12-23.58.17-38.43.17-9.76,0-19.69,0-29.29,0s-19.57-.05-29.36-.05H616.25l-26.48,0Zm252.55-54.46c11.39-2.85,22.17-5.52,32.8-7.15,29.86-4.57,54.43-6.7,77.33-6.7,8.94,0,17.74.34,26.2,1,.09,20.48-11.74,32.33-35.2,35.23a157.83,157.83,0,0,1-19.23,1.18c-21.22,0-43-4.17-66.72-12.73a34.27,34.27,0,0,1-15.18-10.84ZM314.6,719c9.7-.55,19.33-.83,28.69-.83,38.39,0,73.82,4.46,108.17,13.61a26.51,26.51,0,0,1-10.54,8.26c-24.92,10.39-47.72,15.44-69.7,15.44a137.57,137.57,0,0,1-30.39-3.39c-18-4.08-26.8-15.2-26.23-33.09Z" style="fill:#91a4c4"/></g></svg>